<svg class="main-svg" xmlns="http://www.w3.org/2000/svg" xmlns:xlink="http://www.w3.org/1999/xlink" width="1400" height="450" style="" viewBox="0 0 1400 450"><rect x="0" y="0" width="1400" height="450" style="fill: rgb(255, 255, 255); fill-opacity: 1;"/><defs id="defs-4b9d4d"><g class="clips"><clipPath id="clip4b9d4dxyplot" class="plotclip"><rect width="526.0500000000001" height="290"/></clipPath><clipPath id="clip4b9d4dx2y2plot" class="plotclip"><rect width="526.05" height="290"/></clipPath><clipPath class="axesclip" id="clip4b9d4dx"><rect x="80" y="0" width="526.0500000000001" height="450"/></clipPath><clipPath class="axesclip" id="clip4b9d4dy"><rect x="0" y="80" width="1400" height="290"/></clipPath><clipPath class="axesclip" id="clip4b9d4dxy"><rect x="80" y="80" width="526.0500000000001" height="290"/></clipPath><clipPath class="axesclip" id="clip4b9d4dy2"><rect x="0" y="80" width="1400" height="290"/></clipPath><clipPath class="axesclip" id="clip4b9d4dxy2"><rect x="80" y="80" width="526.0500000000001" height="290"/></clipPath><clipPath class="axesclip" id="clip4b9d4dx2"><rect x="722.95" y="0" width="526.05" height="450"/></clipPath><clipPath class="axesclip" id="clip4b9d4dx2y"><rect x="722.95" y="80" width="526.05" height="290"/></clipPath><clipPath class="axesclip" id="clip4b9d4dx2y2"><rect x="722.95" y="80" width="526.05" height="290"/></clipPath></g><g class="gradients"/><g class="patterns"/></defs><g class="bglayer"/><g class="layer-below"><g class="imagelayer"/><g class="shapelayer"/></g><g class="cartesianlayer"><g class="subplot xy"><g class="layer-subplot"><g class="shapelayer"/><g class="imagelayer"/></g><g class="minor-gridlayer"><g class="x"/><g class="y"/></g><g class="gridlayer"><g class="x"><path class="xgrid crisp" transform="translate(211.51,0)" d="M0,80v290" style="stroke: rgb(0, 0, 0); stroke-opacity: 0.1; stroke-width: 1px;"/><path class="xgrid crisp" transform="translate(343.03,0)" d="M0,80v290" style="stroke: rgb(0, 0, 0); stroke-opacity: 0.1; stroke-width: 1px;"/><path class="xgrid crisp" transform="translate(474.54,0)" d="M0,80v290" style="stroke: rgb(0, 0, 0); stroke-opacity: 0.1; stroke-width: 1px;"/></g><g class="y"><path class="ygrid crisp" transform="translate(0,319.57)" d="M80,0h526.0500000000001" style="stroke: rgb(0, 0, 0); stroke-opacity: 0.1; stroke-width: 1px;"/><path class="ygrid crisp" transform="translate(0,269.13)" d="M80,0h526.0500000000001" style="stroke: rgb(0, 0, 0); stroke-opacity: 0.1; stroke-width: 1px;"/><path class="ygrid crisp" transform="translate(0,218.7)" d="M80,0h526.0500000000001" style="stroke: rgb(0, 0, 0); stroke-opacity: 0.1; stroke-width: 1px;"/><path class="ygrid crisp" transform="translate(0,168.26)" d="M80,0h526.0500000000001" style="stroke: rgb(0, 0, 0); stroke-opacity: 0.1; stroke-width: 1px;"/><path class="ygrid crisp" transform="translate(0,117.83)" d="M80,0h526.0500000000001" style="stroke: rgb(0, 0, 0); stroke-opacity: 0.1; stroke-width: 1px;"/></g></g><g class="zerolinelayer"><path class="yzl zl crisp" transform="translate(0,370)" d="M80,0h526.0500000000001" style="stroke: rgb(255, 255, 255); stroke-opacity: 1; stroke-width: 2px;"/></g><g class="layer-between"><g class="shapelayer"/><g class="imagelayer"/></g><path class="xlines-below"/><path class="ylines-below"/><g class="overlines-below"/><g class="xaxislayer-below"/><g class="yaxislayer-below"/><g class="overaxes-below"/><g class="overplot"><g class="xy" transform="translate(80,80)" clip-path="url(#clip4b9d4dxyplot)"><g class="scatterlayer mlayer"><g class="trace scatter trace997a4a" style="stroke-miterlimit: 2;"><g class="fills"><g><path class="js-fill" d="M0,21.11L26.3,103.86L52.61,120.14L78.91,125.66L105.21,134.41L131.51,134.22L157.82,138.02L210.42,142.1L236.72,141.3L263.03,146.74L289.33,144.26L341.93,146.41L368.24,150.31L394.54,147.72L420.84,147.35L447.14,151.86L473.45,149.28L499.75,151.26L526.05,152.22L526.05,148.61L499.75,147.94L473.45,146.07L447.14,146.4L420.84,145.19L394.54,146.23L368.24,143.85L341.93,143.06L315.63,138.77L289.33,138.7L263.03,133.77L236.72,134.62L210.42,130.27L184.12,133.61L157.82,127.46L131.51,129.57L105.21,122.2L52.61,110.49L26.3,77.76L0,5.59Z" style="fill: rgb(45, 106, 79); fill-opacity: 0.15; stroke-width: 0;"/></g></g><g class="errorbars"/><g class="lines"><path class="js-line" d="M0,5.59L26.3,77.76L52.61,110.49L105.21,122.2L131.51,129.57L157.82,127.46L184.12,133.61L210.42,130.27L236.72,134.62L263.03,133.77L289.33,138.7L315.63,138.77L341.93,143.06L368.24,143.85L394.54,146.23L420.84,145.19L447.14,146.4L473.45,146.07L499.75,147.94L526.05,148.61" style="vector-effect: none; fill: none; stroke: rgb(45, 106, 79); stroke-opacity: 1; stroke-width: 0px; opacity: 1;"/></g><g class="points"/><g class="text"/></g><g class="trace scatter trace2b2aa4" style="stroke-miterlimit: 2;"><g class="fills"/><g class="errorbars"/><g class="lines"><path class="js-line" d="M0,21.11L26.3,103.86L52.61,120.14L78.91,125.66L105.21,134.41L131.51,134.22L157.82,138.02L210.42,142.1L236.72,141.3L263.03,146.74L289.33,144.26L341.93,146.41L368.24,150.31L394.54,147.72L420.84,147.35L447.14,151.86L473.45,149.28L499.75,151.26L526.05,152.22" style="vector-effect: none; fill: none; stroke: rgb(239, 85, 59); stroke-opacity: 1; stroke-width: 0px; opacity: 1;"/></g><g class="points"/><g class="text"/></g><g class="trace scatter trace771f7b" style="stroke-miterlimit: 2; opacity: 1;"><g class="fills"/><g class="errorbars"/><g class="lines"><path class="js-line" d="M0,13.35L26.3,90.81L52.61,115.32L78.91,121.02L105.21,128.31L131.51,131.9L157.82,132.74L184.12,136.92L210.42,136.18L289.33,141.48L315.63,142.22L368.24,147.08L394.54,146.98L420.84,146.27L447.14,149.13L473.45,147.67L499.75,149.6L526.05,150.42" style="vector-effect: none; fill: none; stroke: rgb(45, 106, 79); stroke-opacity: 1; stroke-width: 2px; opacity: 1;"/></g><g class="points"/><g class="text"/></g><g class="trace scatter trace6ed18d" style="stroke-miterlimit: 2;"><g class="fills"><g><path class="js-fill" d="M0,24.22L26.3,96.44L52.61,104.12L78.91,110.91L105.21,122.85L131.51,125.62L157.82,122.81L184.12,127.12L210.42,129.22L236.72,131.33L263.03,136.9L289.33,136.38L315.63,141.71L341.93,142.63L368.24,137.73L394.54,143.5L420.84,143L447.14,139.2L473.45,149.86L499.75,148.83L526.05,143.86L526.05,139.79L499.75,129.66L473.45,134.3L447.14,132.62L420.84,133.55L394.54,129.14L368.24,131.46L341.93,128.46L315.63,129.89L263.03,121.92L236.72,123.7L210.42,114.07L184.12,116.18L157.82,112.18L131.51,102.76L105.21,101.74L78.91,103.45L52.61,85.39L26.3,69.71L0,6.11Z" style="fill: rgb(29, 53, 87); fill-opacity: 0.15; stroke-width: 0;"/></g></g><g class="errorbars"/><g class="lines"><path class="js-line" d="M0,6.11L26.3,69.71L52.61,85.39L78.91,103.45L105.21,101.74L131.51,102.76L157.82,112.18L184.12,116.18L210.42,114.07L236.72,123.7L263.03,121.92L315.63,129.89L341.93,128.46L368.24,131.46L394.54,129.14L420.84,133.55L447.14,132.62L473.45,134.3L499.75,129.66L526.05,139.79" style="vector-effect: none; fill: none; stroke: rgb(29, 53, 87); stroke-opacity: 1; stroke-width: 0px; opacity: 1;"/></g><g class="points"/><g class="text"/></g><g class="trace scatter traceeb3fba" style="stroke-miterlimit: 2;"><g class="fills"/><g class="errorbars"/><g class="lines"><path class="js-line" d="M0,24.22L26.3,96.44L52.61,104.12L78.91,110.91L105.21,122.85L131.51,125.62L157.82,122.81L184.12,127.12L210.42,129.22L236.72,131.33L263.03,136.9L289.33,136.38L315.63,141.71L341.93,142.63L368.24,137.73L394.54,143.5L420.84,143L447.14,139.2L473.45,149.86L499.75,148.83L526.05,143.86" style="vector-effect: none; fill: none; stroke: rgb(255, 161, 90); stroke-opacity: 1; stroke-width: 0px; opacity: 1;"/></g><g class="points"/><g class="text"/></g><g class="trace scatter trace943b6d" style="stroke-miterlimit: 2; opacity: 1;"><g class="fills"/><g class="errorbars"/><g class="lines"><path class="js-line" d="M0,15.16L26.3,83.07L52.61,94.75L78.91,107.18L105.21,112.3L131.51,114.19L157.82,117.5L184.12,121.65L210.42,121.65L236.72,127.52L263.03,129.41L289.33,131.21L315.63,135.8L368.24,134.59L394.54,136.32L420.84,138.27L447.14,135.91L473.45,142.08L499.75,139.24L526.05,141.83" style="vector-effect: none; fill: none; stroke: rgb(29, 53, 87); stroke-opacity: 1; stroke-width: 2px; opacity: 1;"/></g><g class="points"/><g class="text"/></g><g class="trace scatter trace3528c0" style="stroke-miterlimit: 2;"><g class="fills"><g><path class="js-fill" d="M0,17.14L26.3,95.01L52.61,114.6L78.91,124.21L105.21,128.2L131.51,130.62L157.82,134.52L210.42,135.69L236.72,141.05L263.03,144.52L289.33,144.5L341.93,146.38L368.24,149.63L394.54,149.96L420.84,148.85L447.14,151.58L473.45,150.32L499.75,151.56L526.05,151.91L526.05,148.67L499.75,147.49L473.45,143.7L447.14,144.52L420.84,141.76L394.54,140.54L368.24,141.69L341.93,139.2L315.63,136.33L289.33,136.31L263.03,135.83L236.72,134.12L210.42,131.27L184.12,126.73L157.82,122.72L105.21,117.52L78.91,109.61L52.61,107.64L26.3,72.93L0,4.69Z" style="fill: rgb(231, 111, 81); fill-opacity: 0.15; stroke-width: 0;"/></g></g><g class="errorbars"/><g class="lines"><path class="js-line" d="M0,4.69L26.3,72.93L52.61,107.64L78.91,109.61L105.21,117.52L157.82,122.72L184.12,126.73L210.42,131.27L236.72,134.12L263.03,135.83L289.33,136.31L315.63,136.33L341.93,139.2L368.24,141.69L394.54,140.54L420.84,141.76L447.14,144.52L473.45,143.7L499.75,147.49L526.05,148.67" style="vector-effect: none; fill: none; stroke: rgb(231, 111, 81); stroke-opacity: 1; stroke-width: 0px; opacity: 1;"/></g><g class="points"/><g class="text"/></g><g class="trace scatter trace5e8d47" style="stroke-miterlimit: 2;"><g class="fills"/><g class="errorbars"/><g class="lines"><path class="js-line" d="M0,17.14L26.3,95.01L52.61,114.6L78.91,124.21L105.21,128.2L131.51,130.62L157.82,134.52L210.42,135.69L236.72,141.05L263.03,144.52L289.33,144.5L341.93,146.38L368.24,149.63L394.54,149.96L420.84,148.85L447.14,151.58L473.45,150.32L499.75,151.56L526.05,151.91" style="vector-effect: none; fill: none; stroke: rgb(182, 232, 128); stroke-opacity: 1; stroke-width: 0px; opacity: 1;"/></g><g class="points"/><g class="text"/></g><g class="trace scatter trace7774f1" style="stroke-miterlimit: 2; opacity: 1;"><g class="fills"/><g class="errorbars"/><g class="lines"><path class="js-line" d="M0,10.92L26.3,83.97L52.61,111.12L105.21,122.86L131.51,125.39L157.82,128.62L184.12,131L210.42,133.48L236.72,137.59L263.03,140.18L289.33,140.41L315.63,140.76L341.93,142.79L368.24,145.66L394.54,145.25L420.84,145.3L447.14,148.05L473.45,147.01L499.75,149.52L526.05,150.29" style="vector-effect: none; fill: none; stroke: rgb(231, 111, 81); stroke-opacity: 1; stroke-width: 2px; opacity: 1;"/></g><g class="points"/><g class="text"/></g><g class="trace scatter trace32e984" style="stroke-miterlimit: 2;"><g class="fills"><g><path class="js-fill" d="M0,26.33L26.3,56.28L52.61,93.04L78.91,88.35L105.21,103.28L131.51,98.28L157.82,105.16L184.12,106.4L210.42,110.81L236.72,115.2L263.03,123.3L289.33,113.87L315.63,121.25L394.54,120.8L420.84,119.06L447.14,127.65L473.45,141.59L499.75,130.25L526.05,136.17L526.05,120.71L499.75,120.61L473.45,129.94L447.14,109.34L420.84,97.35L394.54,109.82L368.24,106.75L341.93,101.73L315.63,99.86L263.03,97.74L236.72,96.28L210.42,98.16L184.12,94.08L157.82,89.21L131.51,83.84L105.21,89.81L78.91,72.67L52.61,78.63L26.3,41.26L0,7.38Z" style="fill: rgb(155, 34, 38); fill-opacity: 0.15; stroke-width: 0;"/></g></g><g class="errorbars"/><g class="lines"><path class="js-line" d="M0,7.38L26.3,41.26L52.61,78.63L78.91,72.67L105.21,89.81L131.51,83.84L157.82,89.21L184.12,94.08L210.42,98.16L236.72,96.28L263.03,97.74L315.63,99.86L341.93,101.73L368.24,106.75L394.54,109.82L420.84,97.35L447.14,109.34L473.45,129.94L499.75,120.61L526.05,120.71" style="vector-effect: none; fill: none; stroke: rgb(155, 34, 38); stroke-opacity: 1; stroke-width: 0px; opacity: 1;"/></g><g class="points"/><g class="text"/></g><g class="trace scatter trace72a7c4" style="stroke-miterlimit: 2;"><g class="fills"/><g class="errorbars"/><g class="lines"><path class="js-line" d="M0,26.33L26.3,56.28L52.61,93.04L78.91,88.35L105.21,103.28L131.51,98.28L157.82,105.16L184.12,106.4L210.42,110.81L236.72,115.2L263.03,123.3L289.33,113.87L315.63,121.25L394.54,120.8L420.84,119.06L447.14,127.65L473.45,141.59L499.75,130.25L526.05,136.17" style="vector-effect: none; fill: none; stroke: rgb(99, 110, 250); stroke-opacity: 1; stroke-width: 0px; opacity: 1;"/></g><g class="points"/><g class="text"/></g><g class="trace scatter trace352240" style="stroke-miterlimit: 2; opacity: 1;"><g class="fills"/><g class="errorbars"/><g class="lines"><path class="js-line" d="M0,16.85L26.3,48.77L52.61,85.84L78.91,80.51L105.21,96.54L131.51,91.06L157.82,97.18L184.12,100.24L210.42,104.49L236.72,105.74L263.03,110.52L289.33,106.19L315.63,110.56L341.93,111.35L368.24,113.97L394.54,115.31L420.84,108.2L447.14,118.49L473.45,135.76L499.75,125.43L526.05,128.44" style="vector-effect: none; fill: none; stroke: rgb(155, 34, 38); stroke-opacity: 1; stroke-width: 2px; opacity: 1;"/></g><g class="points"/><g class="text"/></g><g class="trace scatter traced1e477" style="stroke-miterlimit: 2;"><g class="fills"><g><path class="js-fill" d="M0,23.22L26.3,109.9L52.61,127.01L78.91,134.3L105.21,139.11L131.51,138.43L157.82,140.41L184.12,144.66L210.42,143.18L263.03,148.41L289.33,147.41L315.63,150.59L341.93,149.71L368.24,151.17L394.54,150.67L420.84,153.97L447.14,153.53L473.45,152.89L499.75,153.1L526.05,152.57L526.05,146.84L499.75,150.31L473.45,147.77L447.14,147.17L420.84,146.71L394.54,147.07L368.24,147.9L315.63,146.1L289.33,144.38L236.72,139.22L210.42,137.54L184.12,133.48L157.82,131.91L131.51,133.75L105.21,129.5L52.61,109.21L26.3,86.99L0,3.95Z" style="fill: rgb(123, 45, 139); fill-opacity: 0.15; stroke-width: 0;"/></g></g><g class="errorbars"/><g class="lines"><path class="js-line" d="M0,3.95L26.3,86.99L52.61,109.21L105.21,129.5L131.51,133.75L157.82,131.91L184.12,133.48L210.42,137.54L236.72,139.22L289.33,144.38L315.63,146.1L368.24,147.9L394.54,147.07L420.84,146.71L447.14,147.17L473.45,147.77L499.75,150.31L526.05,146.84" style="vector-effect: none; fill: none; stroke: rgb(123, 45, 139); stroke-opacity: 1; stroke-width: 0px; opacity: 1;"/></g><g class="points"/><g class="text"/></g><g class="trace scatter tracec6d7aa" style="stroke-miterlimit: 2;"><g class="fills"/><g class="errorbars"/><g class="lines"><path class="js-line" d="M0,23.22L26.3,109.9L52.61,127.01L78.91,134.3L105.21,139.11L131.51,138.43L157.82,140.41L184.12,144.66L210.42,143.18L263.03,148.41L289.33,147.41L315.63,150.59L341.93,149.71L368.24,151.17L394.54,150.67L420.84,153.97L447.14,153.53L473.45,152.89L499.75,153.1L526.05,152.57" style="vector-effect: none; fill: none; stroke: rgb(171, 99, 250); stroke-opacity: 1; stroke-width: 0px; opacity: 1;"/></g><g class="points"/><g class="text"/></g><g class="trace scatter trace0a05c5" style="stroke-miterlimit: 2; opacity: 1;"><g class="fills"/><g class="errorbars"/><g class="lines"><path class="js-line" d="M0,13.59L26.3,98.45L52.61,118.11L78.91,126.78L105.21,134.31L131.51,136.09L157.82,136.16L184.12,139.07L210.42,140.36L263.03,145.11L289.33,145.89L315.63,148.35L341.93,148.3L368.24,149.53L394.54,148.87L420.84,150.34L447.14,150.35L473.45,150.33L499.75,151.71L526.05,149.71" style="vector-effect: none; fill: none; stroke: rgb(123, 45, 139); stroke-opacity: 1; stroke-width: 2px; opacity: 1;"/></g><g class="points"/><g class="text"/></g><g class="trace scatter trace9983c6" style="stroke-miterlimit: 2;"><g class="fills"><g><path class="js-fill" d="M0,25.59L26.3,94.2L52.61,115.75L105.21,129.93L131.51,134.38L157.82,140L184.12,141.17L210.42,141.16L236.72,145.91L263.03,148.58L289.33,149.39L315.63,149.74L341.93,148.86L368.24,151.88L394.54,149.25L420.84,154.73L447.14,153.63L473.45,151.78L499.75,153.94L526.05,153.99L526.05,148.49L499.75,150.62L473.45,146.31L447.14,149.14L420.84,144.14L394.54,143.82L368.24,144.88L341.93,142.72L315.63,144.45L289.33,142.99L263.03,142.91L236.72,136.31L210.42,133.44L184.12,137.72L157.82,130.23L131.51,121.72L105.21,122.5L78.91,107.64L52.61,97.72L26.3,73.25L0,5.62Z" style="fill: rgb(0, 119, 182); fill-opacity: 0.15; stroke-width: 0;"/></g></g><g class="errorbars"/><g class="lines"><path class="js-line" d="M0,5.62L26.3,73.25L52.61,97.72L78.91,107.64L105.21,122.5L131.51,121.72L157.82,130.23L184.12,137.72L210.42,133.44L236.72,136.31L263.03,142.91L289.33,142.99L315.63,144.45L341.93,142.72L368.24,144.88L394.54,143.82L420.84,144.14L447.14,149.14L473.45,146.31L499.75,150.62L526.05,148.49" style="vector-effect: none; fill: none; stroke: rgb(0, 119, 182); stroke-opacity: 1; stroke-width: 0px; opacity: 1;"/></g><g class="points"/><g class="text"/></g><g class="trace scatter traceae777d" style="stroke-miterlimit: 2;"><g class="fills"/><g class="errorbars"/><g class="lines"><path class="js-line" d="M0,25.59L26.3,94.2L52.61,115.75L105.21,129.93L131.51,134.38L157.82,140L184.12,141.17L210.42,141.16L236.72,145.91L263.03,148.58L289.33,149.39L315.63,149.74L341.93,148.86L368.24,151.88L394.54,149.25L420.84,154.73L447.14,153.63L473.45,151.78L499.75,153.94L526.05,153.99" style="vector-effect: none; fill: none; stroke: rgb(255, 102, 146); stroke-opacity: 1; stroke-width: 0px; opacity: 1;"/></g><g class="points"/><g class="text"/></g><g class="trace scatter trace66ef56" style="stroke-miterlimit: 2; opacity: 1;"><g class="fills"/><g class="errorbars"/><g class="lines"><path class="js-line" d="M0,15.61L26.3,83.73L52.61,106.74L78.91,115.4L105.21,126.22L131.51,128.05L157.82,135.11L184.12,139.45L210.42,137.3L236.72,141.11L263.03,145.75L315.63,147.09L341.93,145.79L368.24,148.38L394.54,146.53L420.84,149.44L447.14,151.38L473.45,149.05L499.75,152.28L526.05,151.24" style="vector-effect: none; fill: none; stroke: rgb(0, 119, 182); stroke-opacity: 1; stroke-width: 2px; opacity: 1;"/></g><g class="points"/><g class="text"/></g></g></g></g><g class="zerolinelayer-above"/><path class="xlines-above crisp" d="M79,370.5H607.0500000000001M79,79.5H607.0500000000001" style="fill: none; stroke-width: 1px; stroke: rgb(0, 0, 0); stroke-opacity: 1;"/><path class="ylines-above crisp" d="M79.5,80V370M606.5500000000001,80V370" style="fill: none; stroke-width: 1px; stroke: rgb(0, 0, 0); stroke-opacity: 1;"/><g class="overlines-above"/><g class="xaxislayer-above"><g class="xtick"><text text-anchor="middle" x="0" y="385.4" transform="translate(80,0)" style="font-family: 'Open Sans', verdana, arial, sans-serif; font-size: 12px; fill: rgb(42, 63, 95); fill-opacity: 1; white-space: pre;">0</text></g><g class="xtick"><text text-anchor="middle" x="0" y="385.4" style="font-family: 'Open Sans', verdana, arial, sans-serif; font-size: 12px; fill: rgb(42, 63, 95); fill-opacity: 1; white-space: pre;" transform="translate(211.51,0)">500</text></g><g class="xtick"><text text-anchor="middle" x="0" y="385.4" style="font-family: 'Open Sans', verdana, arial, sans-serif; font-size: 12px; fill: rgb(42, 63, 95); fill-opacity: 1; white-space: pre;" transform="translate(343.03,0)">1000</text></g><g class="xtick"><text text-anchor="middle" x="0" y="385.4" style="font-family: 'Open Sans', verdana, arial, sans-serif; font-size: 12px; fill: rgb(42, 63, 95); fill-opacity: 1; white-space: pre;" transform="translate(474.54,0)">1500</text></g><g class="xtick"><text text-anchor="middle" x="0" y="385.4" style="font-family: 'Open Sans', verdana, arial, sans-serif; font-size: 12px; fill: rgb(42, 63, 95); fill-opacity: 1; white-space: pre;" transform="translate(606.05,0)">2000</text></g></g><g class="yaxislayer-above"><g class="ytick"><text text-anchor="end" x="76.6" y="4.199999999999999" transform="translate(0,370)" style="font-family: 'Open Sans', verdana, arial, sans-serif; font-size: 12px; fill: rgb(42, 63, 95); fill-opacity: 1; white-space: pre;">0</text></g><g class="ytick"><text text-anchor="end" x="76.6" y="4.199999999999999" style="font-family: 'Open Sans', verdana, arial, sans-serif; font-size: 12px; fill: rgb(42, 63, 95); fill-opacity: 1; white-space: pre;" transform="translate(0,319.57)">0.2</text></g><g class="ytick"><text text-anchor="end" x="76.6" y="4.199999999999999" style="font-family: 'Open Sans', verdana, arial, sans-serif; font-size: 12px; fill: rgb(42, 63, 95); fill-opacity: 1; white-space: pre;" transform="translate(0,269.13)">0.4</text></g><g class="ytick"><text text-anchor="end" x="76.6" y="4.199999999999999" style="font-family: 'Open Sans', verdana, arial, sans-serif; font-size: 12px; fill: rgb(42, 63, 95); fill-opacity: 1; white-space: pre;" transform="translate(0,218.7)">0.6</text></g><g class="ytick"><text text-anchor="end" x="76.6" y="4.199999999999999" style="font-family: 'Open Sans', verdana, arial, sans-serif; font-size: 12px; fill: rgb(42, 63, 95); fill-opacity: 1; white-space: pre;" transform="translate(0,168.26)">0.8</text></g><g class="ytick"><text text-anchor="end" x="76.6" y="4.199999999999999" style="font-family: 'Open Sans', verdana, arial, sans-serif; font-size: 12px; fill: rgb(42, 63, 95); fill-opacity: 1; white-space: pre;" transform="translate(0,117.83)">1</text></g></g><g class="overaxes-above"/></g><g class="subplot x2y2"><g class="layer-subplot"><g class="shapelayer"/><g class="imagelayer"/></g><g class="minor-gridlayer"><g class="x2"/><g class="y2"/></g><g class="gridlayer"><g class="x2"><path class="x2grid crisp" transform="translate(854.46,0)" d="M0,80v290" style="stroke: rgb(0, 0, 0); stroke-opacity: 0.1; stroke-width: 1px;"/><path class="x2grid crisp" transform="translate(985.97,0)" d="M0,80v290" style="stroke: rgb(0, 0, 0); stroke-opacity: 0.1; stroke-width: 1px;"/><path class="x2grid crisp" transform="translate(1117.49,0)" d="M0,80v290" style="stroke: rgb(0, 0, 0); stroke-opacity: 0.1; stroke-width: 1px;"/></g><g class="y2"><path class="y2grid crisp" transform="translate(0,319.57)" d="M722.95,0h526.05" style="stroke: rgb(0, 0, 0); stroke-opacity: 0.1; stroke-width: 1px;"/><path class="y2grid crisp" transform="translate(0,269.13)" d="M722.95,0h526.05" style="stroke: rgb(0, 0, 0); stroke-opacity: 0.1; stroke-width: 1px;"/><path class="y2grid crisp" transform="translate(0,218.7)" d="M722.95,0h526.05" style="stroke: rgb(0, 0, 0); stroke-opacity: 0.1; stroke-width: 1px;"/><path class="y2grid crisp" transform="translate(0,168.26)" d="M722.95,0h526.05" style="stroke: rgb(0, 0, 0); stroke-opacity: 0.1; stroke-width: 1px;"/><path class="y2grid crisp" transform="translate(0,117.83)" d="M722.95,0h526.05" style="stroke: rgb(0, 0, 0); stroke-opacity: 0.1; stroke-width: 1px;"/></g></g><g class="zerolinelayer"><path class="y2zl zl crisp" transform="translate(0,370)" d="M722.95,0h526.05" style="stroke: rgb(255, 255, 255); stroke-opacity: 1; stroke-width: 2px;"/></g><g class="layer-between"><g class="shapelayer"/><g class="imagelayer"/></g><path class="xlines-below"/><path class="ylines-below"/><g class="overlines-below"/><g class="xaxislayer-below"/><g class="yaxislayer-below"/><g class="overaxes-below"/><g class="overplot"><g class="x2y2" transform="translate(722.95,80)" clip-path="url(#clip4b9d4dx2y2plot)"><g class="scatterlayer mlayer"><g class="trace scatter tracef5deb6" style="stroke-miterlimit: 2;"><g class="fills"><g><path class="js-fill" d="M0,62.75L26.3,116.9L52.6,124.79L78.91,125.96L105.21,133.73L131.51,132.73L157.81,134.9L184.12,138.54L210.42,139.36L263.02,142.07L289.33,143.18L315.63,143.42L341.93,142.68L368.23,144.92L394.54,145.54L420.84,146.97L447.14,145.81L473.44,148.52L499.75,147.43L526.05,148.7L526.05,145.43L499.75,144.38L473.44,146.67L420.84,142.48L394.54,143.02L368.23,141.95L341.93,140.56L315.63,141.89L289.33,140.05L263.02,140.11L236.72,137.86L210.42,136.83L184.12,134.73L157.81,130.75L131.51,126.66L105.21,124.05L78.91,120.56L52.6,118.74L26.3,109.7L0,57.87Z" style="fill: rgb(45, 106, 79); fill-opacity: 0.15; stroke-width: 0;"/></g></g><g class="errorbars"/><g class="lines"><path class="js-line" d="M0,57.87L26.3,109.7L52.6,118.74L78.91,120.56L105.21,124.05L131.51,126.66L157.81,130.75L184.12,134.73L210.42,136.83L236.72,137.86L263.02,140.11L289.33,140.05L315.63,141.89L341.93,140.56L368.23,141.95L394.54,143.02L420.84,142.48L473.44,146.67L499.75,144.38L526.05,145.43" style="vector-effect: none; fill: none; stroke: rgb(45, 106, 79); stroke-opacity: 1; stroke-width: 0px; opacity: 1;"/></g><g class="points"/><g class="text"/></g><g class="trace scatter trace68c671" style="stroke-miterlimit: 2;"><g class="fills"/><g class="errorbars"/><g class="lines"><path class="js-line" d="M0,62.75L26.3,116.9L52.6,124.79L78.91,125.96L105.21,133.73L131.51,132.73L157.81,134.9L184.12,138.54L210.42,139.36L263.02,142.07L289.33,143.18L315.63,143.42L341.93,142.68L368.23,144.92L394.54,145.54L420.84,146.97L447.14,145.81L473.44,148.52L499.75,147.43L526.05,148.7" style="vector-effect: none; fill: none; stroke: rgb(254, 203, 82); stroke-opacity: 1; stroke-width: 0px; opacity: 1;"/></g><g class="points"/><g class="text"/></g><g class="trace scatter trace35aa5c" style="stroke-miterlimit: 2; opacity: 1;"><g class="fills"/><g class="errorbars"/><g class="lines"><path class="js-line" d="M0,60.31L26.3,113.3L52.6,121.77L78.91,123.26L105.21,128.89L131.51,129.69L157.81,132.82L184.12,136.64L210.42,138.09L263.02,141.09L289.33,141.61L315.63,142.66L341.93,141.62L368.23,143.44L394.54,144.28L447.14,145.29L473.44,147.59L499.75,145.9L526.05,147.06" style="vector-effect: none; fill: none; stroke: rgb(45, 106, 79); stroke-opacity: 1; stroke-width: 2px; opacity: 1;"/></g><g class="points"/><g class="text"/></g><g class="trace scatter trace4ff4f9" style="stroke-miterlimit: 2;"><g class="fills"><g><path class="js-fill" d="M0,64.89L26.3,114.78L52.6,122.05L78.91,124.59L105.21,125.53L157.81,130.19L184.12,133.59L210.42,133.17L236.72,133.98L289.33,139.31L315.63,137.82L341.93,139.66L368.23,139.92L420.84,139.54L447.14,141.36L499.75,144.31L526.05,144.37L526.05,140.92L499.75,140.13L473.44,140.76L420.84,136.45L394.54,136.53L368.23,135.77L341.93,135.32L315.63,132.74L289.33,133.5L263.02,131.68L236.72,131.89L210.42,130.49L184.12,130.64L157.81,128.78L131.51,122.73L105.21,121.16L78.91,113.63L52.6,113.15L26.3,102.98L0,56.78Z" style="fill: rgb(29, 53, 87); fill-opacity: 0.15; stroke-width: 0;"/></g></g><g class="errorbars"/><g class="lines"><path class="js-line" d="M0,56.78L26.3,102.98L52.6,113.15L78.91,113.63L105.21,121.16L131.51,122.73L157.81,128.78L184.12,130.64L210.42,130.49L236.72,131.89L263.02,131.68L289.33,133.5L315.63,132.74L341.93,135.32L368.23,135.77L394.54,136.53L420.84,136.45L473.44,140.76L499.75,140.13L526.05,140.92" style="vector-effect: none; fill: none; stroke: rgb(29, 53, 87); stroke-opacity: 1; stroke-width: 0px; opacity: 1;"/></g><g class="points"/><g class="text"/></g><g class="trace scatter tracee55c79" style="stroke-miterlimit: 2;"><g class="fills"/><g class="errorbars"/><g class="lines"><path class="js-line" d="M0,64.89L26.3,114.78L52.6,122.05L78.91,124.59L105.21,125.53L157.81,130.19L184.12,133.59L210.42,133.17L236.72,133.98L289.33,139.31L315.63,137.82L341.93,139.66L368.23,139.92L420.84,139.54L447.14,141.36L499.75,144.31L526.05,144.37" style="vector-effect: none; fill: none; stroke: rgb(0, 204, 150); stroke-opacity: 1; stroke-width: 0px; opacity: 1;"/></g><g class="points"/><g class="text"/></g><g class="trace scatter traceecc108" style="stroke-miterlimit: 2; opacity: 1;"><g class="fills"/><g class="errorbars"/><g class="lines"><path class="js-line" d="M0,60.83L26.3,108.88L52.6,117.6L78.91,119.11L105.21,123.35L131.51,125.4L157.81,129.49L184.12,132.12L210.42,131.83L263.02,134.17L289.33,136.4L315.63,135.28L341.93,137.49L420.84,137.99L447.14,139.86L473.44,141.7L499.75,142.22L526.05,142.65" style="vector-effect: none; fill: none; stroke: rgb(29, 53, 87); stroke-opacity: 1; stroke-width: 2px; opacity: 1;"/></g><g class="points"/><g class="text"/></g><g class="trace scatter traced1567b" style="stroke-miterlimit: 2;"><g class="fills"><g><path class="js-fill" d="M0,68.12L26.3,113.54L52.6,126.42L78.91,129.15L105.21,134.25L157.81,139.61L184.12,139.96L236.72,142.71L263.02,142.37L289.33,145.28L315.63,145.56L341.93,146L368.23,148.74L394.54,147.78L420.84,148.65L447.14,150.35L473.44,150.28L499.75,149.47L526.05,152.64L526.05,146.37L499.75,145.29L473.44,145.22L447.14,145.92L420.84,144L394.54,141.19L368.23,143.15L341.93,143.78L315.63,141.08L289.33,140.52L263.02,138.74L236.72,138.89L210.42,135.18L184.12,133.86L157.81,130.64L131.51,128.09L105.21,128.19L78.91,123.52L52.6,114.62L26.3,103.65L0,56.64Z" style="fill: rgb(231, 111, 81); fill-opacity: 0.15; stroke-width: 0;"/></g></g><g class="errorbars"/><g class="lines"><path class="js-line" d="M0,56.64L26.3,103.65L52.6,114.62L78.91,123.52L105.21,128.19L131.51,128.09L157.81,130.64L184.12,133.86L210.42,135.18L236.72,138.89L263.02,138.74L289.33,140.52L315.63,141.08L341.93,143.78L368.23,143.15L394.54,141.19L420.84,144L447.14,145.92L473.44,145.22L499.75,145.29L526.05,146.37" style="vector-effect: none; fill: none; stroke: rgb(231, 111, 81); stroke-opacity: 1; stroke-width: 0px; opacity: 1;"/></g><g class="points"/><g class="text"/></g><g class="trace scatter trace786d4a" style="stroke-miterlimit: 2;"><g class="fills"/><g class="errorbars"/><g class="lines"><path class="js-line" d="M0,68.12L26.3,113.54L52.6,126.42L78.91,129.15L105.21,134.25L157.81,139.61L184.12,139.96L236.72,142.71L263.02,142.37L289.33,145.28L315.63,145.56L341.93,146L368.23,148.74L394.54,147.78L420.84,148.65L447.14,150.35L473.44,150.28L499.75,149.47L526.05,152.64" style="vector-effect: none; fill: none; stroke: rgb(25, 211, 243); stroke-opacity: 1; stroke-width: 0px; opacity: 1;"/></g><g class="points"/><g class="text"/></g><g class="trace scatter trace7a7a3d" style="stroke-miterlimit: 2; opacity: 1;"><g class="fills"/><g class="errorbars"/><g class="lines"><path class="js-line" d="M0,62.38L26.3,108.59L52.6,120.52L78.91,126.34L105.21,131.22L131.51,132.57L157.81,135.12L236.72,140.8L263.02,140.55L289.33,142.9L315.63,143.32L368.23,145.95L394.54,144.48L447.14,148.13L473.44,147.75L499.75,147.38L526.05,149.51" style="vector-effect: none; fill: none; stroke: rgb(231, 111, 81); stroke-opacity: 1; stroke-width: 2px; opacity: 1;"/></g><g class="points"/><g class="text"/></g><g class="trace scatter trace1b1a34" style="stroke-miterlimit: 2;"><g class="fills"><g><path class="js-fill" d="M0,66.05L26.3,95.42L52.6,112.51L78.91,118.05L105.21,119.03L184.12,126.44L210.42,125.55L236.72,130.47L263.02,130.45L289.33,135.28L315.63,134.64L341.93,133.37L368.23,134.51L394.54,138.9L420.84,138.87L447.14,136.59L473.44,139L526.05,141.86L526.05,139.41L499.75,136.01L473.44,134.96L447.14,131.08L420.84,134.4L394.54,127.62L368.23,128.78L315.63,124.81L289.33,123.34L263.02,122.89L236.72,122.36L210.42,118.2L184.12,119.94L157.81,118.82L131.51,109.21L105.21,112.84L78.91,107.94L52.6,100.65L26.3,85.99L0,56.66Z" style="fill: rgb(155, 34, 38); fill-opacity: 0.15; stroke-width: 0;"/></g></g><g class="errorbars"/><g class="lines"><path class="js-line" d="M0,56.66L26.3,85.99L52.6,100.65L78.91,107.94L105.21,112.84L131.51,109.21L157.81,118.82L184.12,119.94L210.42,118.2L236.72,122.36L263.02,122.89L289.33,123.34L315.63,124.81L368.23,128.78L394.54,127.62L420.84,134.4L447.14,131.08L473.44,134.96L499.75,136.01L526.05,139.41" style="vector-effect: none; fill: none; stroke: rgb(155, 34, 38); stroke-opacity: 1; stroke-width: 0px; opacity: 1;"/></g><g class="points"/><g class="text"/></g><g class="trace scatter trace0700b7" style="stroke-miterlimit: 2;"><g class="fills"/><g class="errorbars"/><g class="lines"><path class="js-line" d="M0,66.05L26.3,95.42L52.6,112.51L78.91,118.05L105.21,119.03L184.12,126.44L210.42,125.55L236.72,130.47L263.02,130.45L289.33,135.28L315.63,134.64L341.93,133.37L368.23,134.51L394.54,138.9L420.84,138.87L447.14,136.59L473.44,139L526.05,141.86" style="vector-effect: none; fill: none; stroke: rgb(255, 151, 255); stroke-opacity: 1; stroke-width: 0px; opacity: 1;"/></g><g class="points"/><g class="text"/></g><g class="trace scatter tracee40438" style="stroke-miterlimit: 2; opacity: 1;"><g class="fills"/><g class="errorbars"/><g class="lines"><path class="js-line" d="M0,61.35L26.3,90.71L52.6,106.58L78.91,112.99L105.21,115.93L131.51,115.47L157.81,121.39L184.12,123.19L210.42,121.88L236.72,126.41L263.02,126.67L289.33,129.31L315.63,129.73L341.93,129.97L368.23,131.64L394.54,133.26L420.84,136.64L447.14,133.84L473.44,136.98L499.75,138.14L526.05,140.64" style="vector-effect: none; fill: none; stroke: rgb(155, 34, 38); stroke-opacity: 1; stroke-width: 2px; opacity: 1;"/></g><g class="points"/><g class="text"/></g><g class="trace scatter traced7be77" style="stroke-miterlimit: 2;"><g class="fills"><g><path class="js-fill" d="M0,67.28L26.3,118.33L52.6,123.99L78.91,125.12L105.21,130.23L131.51,134.05L157.81,139.28L184.12,140.9L210.42,138.59L236.72,144.56L263.02,143.59L315.63,145.83L341.93,147.36L368.23,146.23L394.54,146.97L420.84,149.77L447.14,148.59L473.44,150.77L499.75,151.41L526.05,151.14L526.05,147.39L499.75,148.19L473.44,146.32L447.14,146.71L394.54,144.24L368.23,144.64L341.93,143.71L315.63,142.78L289.33,140.68L263.02,138.56L236.72,134.93L210.42,134.96L184.12,131.15L157.81,124.26L105.21,123.08L78.91,119.3L52.6,119.71L26.3,115.35L0,57.42Z" style="fill: rgb(123, 45, 139); fill-opacity: 0.15; stroke-width: 0;"/></g></g><g class="errorbars"/><g class="lines"><path class="js-line" d="M0,57.42L26.3,115.35L52.6,119.71L78.91,119.3L105.21,123.08L157.81,124.26L184.12,131.15L210.42,134.96L236.72,134.93L263.02,138.56L289.33,140.68L315.63,142.78L341.93,143.71L368.23,144.64L394.54,144.24L447.14,146.71L473.44,146.32L499.75,148.19L526.05,147.39" style="vector-effect: none; fill: none; stroke: rgb(123, 45, 139); stroke-opacity: 1; stroke-width: 0px; opacity: 1;"/></g><g class="points"/><g class="text"/></g><g class="trace scatter traced5916f" style="stroke-miterlimit: 2;"><g class="fills"/><g class="errorbars"/><g class="lines"><path class="js-line" d="M0,67.28L26.3,118.33L52.6,123.99L78.91,125.12L105.21,130.23L131.51,134.05L157.81,139.28L184.12,140.9L210.42,138.59L236.72,144.56L263.02,143.59L315.63,145.83L341.93,147.36L368.23,146.23L394.54,146.97L420.84,149.77L447.14,148.59L473.44,150.77L499.75,151.41L526.05,151.14" style="vector-effect: none; fill: none; stroke: rgb(239, 85, 59); stroke-opacity: 1; stroke-width: 0px; opacity: 1;"/></g><g class="points"/><g class="text"/></g><g class="trace scatter trace6f97dc" style="stroke-miterlimit: 2; opacity: 1;"><g class="fills"/><g class="errorbars"/><g class="lines"><path class="js-line" d="M0,62.35L26.3,116.84L52.6,121.85L78.91,122.21L105.21,126.65L131.51,128.69L157.81,131.77L184.12,136.02L210.42,136.78L236.72,139.74L263.02,141.07L341.93,145.54L368.23,145.43L394.54,145.6L420.84,147.44L473.44,148.54L499.75,149.8L526.05,149.27" style="vector-effect: none; fill: none; stroke: rgb(123, 45, 139); stroke-opacity: 1; stroke-width: 2px; opacity: 1;"/></g><g class="points"/><g class="text"/></g><g class="trace scatter tracee7d5f6" style="stroke-miterlimit: 2;"><g class="fills"><g><path class="js-fill" d="M0,66.22L26.3,112.1L52.6,124.41L105.21,131.19L131.51,129.51L157.81,133.73L184.12,135.84L210.42,138.17L236.72,139.39L263.02,142.26L289.33,144.13L341.93,142.8L368.23,145.71L394.54,144.54L420.84,145.91L447.14,147.23L473.44,146.28L499.75,146.11L526.05,149.25L526.05,145.9L499.75,144.06L447.14,144.31L420.84,144.18L394.54,142.56L368.23,142.67L341.93,140.69L315.63,140.55L289.33,139.54L263.02,136.3L210.42,132.29L184.12,133.71L157.81,128.14L131.51,123.32L105.21,121.66L78.91,119.12L52.6,119.91L26.3,103.48L0,53.96Z" style="fill: rgb(0, 119, 182); fill-opacity: 0.15; stroke-width: 0;"/></g></g><g class="errorbars"/><g class="lines"><path class="js-line" d="M0,53.96L26.3,103.48L52.6,119.91L78.91,119.12L105.21,121.66L131.51,123.32L157.81,128.14L184.12,133.71L210.42,132.29L263.02,136.3L289.33,139.54L315.63,140.55L341.93,140.69L368.23,142.67L394.54,142.56L420.84,144.18L447.14,144.31L499.75,144.06L526.05,145.9" style="vector-effect: none; fill: none; stroke: rgb(0, 119, 182); stroke-opacity: 1; stroke-width: 0px; opacity: 1;"/></g><g class="points"/><g class="text"/></g><g class="trace scatter trace273211" style="stroke-miterlimit: 2;"><g class="fills"/><g class="errorbars"/><g class="lines"><path class="js-line" d="M0,66.22L26.3,112.1L52.6,124.41L105.21,131.19L131.51,129.51L157.81,133.73L184.12,135.84L210.42,138.17L236.72,139.39L263.02,142.26L289.33,144.13L341.93,142.8L368.23,145.71L394.54,144.54L420.84,145.91L447.14,147.23L473.44,146.28L499.75,146.11L526.05,149.25" style="vector-effect: none; fill: none; stroke: rgb(255, 161, 90); stroke-opacity: 1; stroke-width: 0px; opacity: 1;"/></g><g class="points"/><g class="text"/></g><g class="trace scatter tracea0153b" style="stroke-miterlimit: 2; opacity: 1;"><g class="fills"/><g class="errorbars"/><g class="lines"><path class="js-line" d="M0,60.09L26.3,107.79L52.6,122.16L78.91,123.29L105.21,126.42L131.51,126.41L157.81,130.94L184.12,134.78L210.42,135.23L236.72,136.75L263.02,139.28L289.33,141.83L315.63,141.91L341.93,141.75L368.23,144.19L394.54,143.55L420.84,145.04L447.14,145.77L473.44,145.13L499.75,145.08L526.05,147.58" style="vector-effect: none; fill: none; stroke: rgb(0, 119, 182); stroke-opacity: 1; stroke-width: 2px; opacity: 1;"/></g><g class="points"/><g class="text"/></g></g></g></g><g class="zerolinelayer-above"/><path class="xlines-above crisp" d="M721.95,370.5H1250M721.95,79.5H1250" style="fill: none; stroke-width: 1px; stroke: rgb(0, 0, 0); stroke-opacity: 1;"/><path class="ylines-above crisp" d="M722.45,80V370M1249.5,80V370" style="fill: none; stroke-width: 1px; stroke: rgb(0, 0, 0); stroke-opacity: 1;"/><g class="overlines-above"/><g class="xaxislayer-above"><g class="x2tick"><text text-anchor="middle" x="0" y="385.4" transform="translate(722.95,0)" style="font-family: 'Open Sans', verdana, arial, sans-serif; font-size: 12px; fill: rgb(42, 63, 95); fill-opacity: 1; white-space: pre;">0</text></g><g class="x2tick"><text text-anchor="middle" x="0" y="385.4" style="font-family: 'Open Sans', verdana, arial, sans-serif; font-size: 12px; fill: rgb(42, 63, 95); fill-opacity: 1; white-space: pre;" transform="translate(854.46,0)">500</text></g><g class="x2tick"><text text-anchor="middle" x="0" y="385.4" style="font-family: 'Open Sans', verdana, arial, sans-serif; font-size: 12px; fill: rgb(42, 63, 95); fill-opacity: 1; white-space: pre;" transform="translate(985.97,0)">1000</text></g><g class="x2tick"><text text-anchor="middle" x="0" y="385.4" style="font-family: 'Open Sans', verdana, arial, sans-serif; font-size: 12px; fill: rgb(42, 63, 95); fill-opacity: 1; white-space: pre;" transform="translate(1117.49,0)">1500</text></g><g class="x2tick"><text text-anchor="middle" x="0" y="385.4" style="font-family: 'Open Sans', verdana, arial, sans-serif; font-size: 12px; fill: rgb(42, 63, 95); fill-opacity: 1; white-space: pre;" transform="translate(1249,0)">2000</text></g></g><g class="yaxislayer-above"><g class="y2tick"><text text-anchor="end" x="719.5500000000001" y="4.199999999999999" transform="translate(0,370)" style="font-family: 'Open Sans', verdana, arial, sans-serif; font-size: 12px; fill: rgb(42, 63, 95); fill-opacity: 1; white-space: pre;">0</text></g><g class="y2tick"><text text-anchor="end" x="719.5500000000001" y="4.199999999999999" style="font-family: 'Open Sans', verdana, arial, sans-serif; font-size: 12px; fill: rgb(42, 63, 95); fill-opacity: 1; white-space: pre;" transform="translate(0,319.57)">0.2</text></g><g class="y2tick"><text text-anchor="end" x="719.5500000000001" y="4.199999999999999" style="font-family: 'Open Sans', verdana, arial, sans-serif; font-size: 12px; fill: rgb(42, 63, 95); fill-opacity: 1; white-space: pre;" transform="translate(0,269.13)">0.4</text></g><g class="y2tick"><text text-anchor="end" x="719.5500000000001" y="4.199999999999999" style="font-family: 'Open Sans', verdana, arial, sans-serif; font-size: 12px; fill: rgb(42, 63, 95); fill-opacity: 1; white-space: pre;" transform="translate(0,218.7)">0.6</text></g><g class="y2tick"><text text-anchor="end" x="719.5500000000001" y="4.199999999999999" style="font-family: 'Open Sans', verdana, arial, sans-serif; font-size: 12px; fill: rgb(42, 63, 95); fill-opacity: 1; white-space: pre;" transform="translate(0,168.26)">0.8</text></g><g class="y2tick"><text text-anchor="end" x="719.5500000000001" y="4.199999999999999" style="font-family: 'Open Sans', verdana, arial, sans-serif; font-size: 12px; fill: rgb(42, 63, 95); fill-opacity: 1; white-space: pre;" transform="translate(0,117.83)">1</text></g></g><g class="overaxes-above"/></g></g><g class="polarlayer"/><g class="smithlayer"/><g class="ternarylayer"/><g class="geolayer"/><g class="funnelarealayer"/><g class="pielayer"/><g class="iciclelayer"/><g class="treemaplayer"/><g class="sunburstlayer"/><g class="glimages"/><defs id="topdefs-4b9d4d"><g class="clips"/><clipPath id="legend4b9d4d"><rect width="116" height="174" x="0" y="0"/></clipPath></defs><g class="layer-above"><g class="imagelayer"/><g class="shapelayer"/></g><g class="infolayer"><g class="legend" pointer-events="all" transform="translate(1272.38,80)"><rect class="bg" shape-rendering="crispEdges" style="stroke: rgb(68, 68, 68); stroke-opacity: 1; fill: rgb(255, 255, 255); fill-opacity: 1; stroke-width: 0px;" width="116" height="174" x="0" y="0"/><g class="scrollbox" transform="" clip-path="url(#legend4b9d4d)"><g class="groups" transform=""><g class="traces" transform="translate(0,14.5)" style="opacity: 1;"><text class="legendtext" text-anchor="start" x="40" y="4.680000000000001" style="font-family: 'Open Sans', verdana, arial, sans-serif; font-size: 12px; fill: rgb(42, 63, 95); fill-opacity: 1; white-space: pre;">EI</text><g class="layers" style="opacity: 1;"><g class="legendfill"/><g class="legendlines"><path class="js-line" d="M5,0h30" style="fill: none; stroke: rgb(45, 106, 79); stroke-opacity: 1; stroke-width: 2px;"/></g><g class="legendsymbols"><g class="legendpoints"/></g></g><rect class="legendtoggle" x="0" y="-9.5" width="110.875" height="19" style="fill: rgb(0, 0, 0); fill-opacity: 0;"/></g></g><g class="groups" transform="translate(0,10)"><g class="traces" transform="translate(0,33.5)" style="opacity: 1;"><text class="legendtext" text-anchor="start" x="40" y="4.680000000000001" style="font-family: 'Open Sans', verdana, arial, sans-serif; font-size: 12px; fill: rgb(42, 63, 95); fill-opacity: 1; white-space: pre;">UCB</text><g class="layers" style="opacity: 1;"><g class="legendfill"/><g class="legendlines"><path class="js-line" d="M5,0h30" style="fill: none; stroke: rgb(29, 53, 87); stroke-opacity: 1; stroke-width: 2px;"/></g><g class="legendsymbols"><g class="legendpoints"/></g></g><rect class="legendtoggle" x="0" y="-9.5" width="110.875" height="19" style="fill: rgb(0, 0, 0); fill-opacity: 0;"/></g></g><g class="groups" transform="translate(0,20)"><g class="traces" transform="translate(0,52.5)" style="opacity: 1;"><text class="legendtext" text-anchor="start" x="40" y="4.680000000000001" style="font-family: 'Open Sans', verdana, arial, sans-serif; font-size: 12px; fill: rgb(42, 63, 95); fill-opacity: 1; white-space: pre;">Random</text><g class="layers" style="opacity: 1;"><g class="legendfill"/><g class="legendlines"><path class="js-line" d="M5,0h30" style="fill: none; stroke: rgb(231, 111, 81); stroke-opacity: 1; stroke-width: 2px;"/></g><g class="legendsymbols"><g class="legendpoints"/></g></g><rect class="legendtoggle" x="0" y="-9.5" width="110.875" height="19" style="fill: rgb(0, 0, 0); fill-opacity: 0;"/></g></g><g class="groups" transform="translate(0,30)"><g class="traces" transform="translate(0,71.5)" style="opacity: 1;"><text class="legendtext" text-anchor="start" x="40" y="4.680000000000001" style="font-family: 'Open Sans', verdana, arial, sans-serif; font-size: 12px; fill: rgb(42, 63, 95); fill-opacity: 1; white-space: pre;">Exploitation</text><g class="layers" style="opacity: 1;"><g class="legendfill"/><g class="legendlines"><path class="js-line" d="M5,0h30" style="fill: none; stroke: rgb(155, 34, 38); stroke-opacity: 1; stroke-width: 2px;"/></g><g class="legendsymbols"><g class="legendpoints"/></g></g><rect class="legendtoggle" x="0" y="-9.5" width="110.875" height="19" style="fill: rgb(0, 0, 0); fill-opacity: 0;"/></g></g><g class="groups" transform="translate(0,40)"><g class="traces" transform="translate(0,90.5)" style="opacity: 1;"><text class="legendtext" text-anchor="start" x="40" y="4.680000000000001" style="font-family: 'Open Sans', verdana, arial, sans-serif; font-size: 12px; fill: rgb(42, 63, 95); fill-opacity: 1; white-space: pre;">Exploration</text><g class="layers" style="opacity: 1;"><g class="legendfill"/><g class="legendlines"><path class="js-line" d="M5,0h30" style="fill: none; stroke: rgb(123, 45, 139); stroke-opacity: 1; stroke-width: 2px;"/></g><g class="legendsymbols"><g class="legendpoints"/></g></g><rect class="legendtoggle" x="0" y="-9.5" width="110.875" height="19" style="fill: rgb(0, 0, 0); fill-opacity: 0;"/></g></g><g class="groups" transform="translate(0,50)"><g class="traces" transform="translate(0,109.5)" style="opacity: 1;"><text class="legendtext" text-anchor="start" x="40" y="4.680000000000001" style="font-family: 'Open Sans', verdana, arial, sans-serif; font-size: 12px; fill: rgb(42, 63, 95); fill-opacity: 1; white-space: pre;">Diversity</text><g class="layers" style="opacity: 1;"><g class="legendfill"/><g class="legendlines"><path class="js-line" d="M5,0h30" style="fill: none; stroke: rgb(0, 119, 182); stroke-opacity: 1; stroke-width: 2px;"/></g><g class="legendsymbols"><g class="legendpoints"/></g></g><rect class="legendtoggle" x="0" y="-9.5" width="110.875" height="19" style="fill: rgb(0, 0, 0); fill-opacity: 0;"/></g></g></g><rect class="scrollbar" rx="20" ry="3" width="0" height="0" style="fill: rgb(128, 139, 164); fill-opacity: 1;" x="0" y="0"/></g><g class="g-gtitle"/><g class="g-xtitle"><text class="xtitle" x="343.02500000000003" y="412.700390625" text-anchor="middle" style="opacity: 1; font-family: 'Open Sans', verdana, arial, sans-serif; font-size: 14px; fill: rgb(42, 63, 95); fill-opacity: 1; white-space: pre;">Number of Labeled Molecules</text></g><g class="g-x2title"><text class="x2title" x="985.975" y="412.700390625" text-anchor="middle" style="opacity: 1; font-family: 'Open Sans', verdana, arial, sans-serif; font-size: 14px; fill: rgb(42, 63, 95); fill-opacity: 1; white-space: pre;">Number of Labeled Molecules</text></g><g class="g-ytitle"><text class="ytitle" transform="rotate(-90,37.574609375,225)" x="37.574609375" y="225" text-anchor="middle" style="opacity: 1; font-family: 'Open Sans', verdana, arial, sans-serif; font-size: 14px; fill: rgb(42, 63, 95); fill-opacity: 1; white-space: pre;">MAE (pEC50 units)</text></g><g class="g-y2title"><text class="y2title" transform="rotate(-90,680.5248046875,225)" x="680.5248046875" y="225" text-anchor="middle" style="opacity: 1; font-family: 'Open Sans', verdana, arial, sans-serif; font-size: 14px; fill: rgb(42, 63, 95); fill-opacity: 1; white-space: pre;">MAE (pEC50 units)</text></g><g class="annotation" data-index="0" style="opacity: 1;"><g class="annotation-text-g" transform="rotate(0,135,68.5)"><g class="cursor-pointer" transform="translate(80,57)"><rect class="bg" x="0.5" y="0.5" width="109" height="22" style="stroke-width: 1px; stroke: rgb(0, 0, 0); stroke-opacity: 0; fill: rgb(0, 0, 0); fill-opacity: 0;"/><text class="annotation-text" text-anchor="middle" x="54.9140625" y="18" style="font-family: 'Open Sans', verdana, arial, sans-serif; font-size: 16px; fill: rgb(42, 63, 95); fill-opacity: 1; white-space: pre;">Scaffold Split</text></g></g></g><g class="annotation" data-index="1" style="opacity: 1;"><g class="annotation-text-g" transform="rotate(0,778.45,68.5)"><g class="cursor-pointer" transform="translate(723,57)"><rect class="bg" x="0.5" y="0.5" width="110" height="22" style="stroke-width: 1px; stroke: rgb(0, 0, 0); stroke-opacity: 0; fill: rgb(0, 0, 0); fill-opacity: 0;"/><text class="annotation-text" text-anchor="middle" x="55.703125" y="18" style="font-family: 'Open Sans', verdana, arial, sans-serif; font-size: 16px; fill: rgb(42, 63, 95); fill-opacity: 1; white-space: pre;">Random Split</text></g></g></g></g></svg>