<svg class="main-svg" xmlns="http://www.w3.org/2000/svg" xmlns:xlink="http://www.w3.org/1999/xlink" width="1400" height="450" style="" viewBox="0 0 1400 450"><rect x="0" y="0" width="1400" height="450" style="fill: rgb(255, 255, 255); fill-opacity: 1;"/><defs id="defs-debf5b"><g class="clips"><clipPath id="clipdebf5bxyplot" class="plotclip"><rect width="526.0500000000001" height="290"/></clipPath><clipPath id="clipdebf5bx2y2plot" class="plotclip"><rect width="526.05" height="290"/></clipPath><clipPath class="axesclip" id="clipdebf5bx"><rect x="80" y="0" width="526.0500000000001" height="450"/></clipPath><clipPath class="axesclip" id="clipdebf5by"><rect x="0" y="80" width="1400" height="290"/></clipPath><clipPath class="axesclip" id="clipdebf5bxy"><rect x="80" y="80" width="526.0500000000001" height="290"/></clipPath><clipPath class="axesclip" id="clipdebf5by2"><rect x="0" y="80" width="1400" height="290"/></clipPath><clipPath class="axesclip" id="clipdebf5bxy2"><rect x="80" y="80" width="526.0500000000001" height="290"/></clipPath><clipPath class="axesclip" id="clipdebf5bx2"><rect x="722.95" y="0" width="526.05" height="450"/></clipPath><clipPath class="axesclip" id="clipdebf5bx2y"><rect x="722.95" y="80" width="526.05" height="290"/></clipPath><clipPath class="axesclip" id="clipdebf5bx2y2"><rect x="722.95" y="80" width="526.05" height="290"/></clipPath></g><g class="gradients"/><g class="patterns"/></defs><g class="bglayer"/><g class="layer-below"><g class="imagelayer"/><g class="shapelayer"/></g><g class="cartesianlayer"><g class="subplot xy"><g class="layer-subplot"><g class="shapelayer"/><g class="imagelayer"/></g><g class="minor-gridlayer"><g class="x"/><g class="y"/></g><g class="gridlayer"><g class="x"><path class="xgrid crisp" transform="translate(211.51,0)" d="M0,80v290" style="stroke: rgb(0, 0, 0); stroke-opacity: 0.1; stroke-width: 1px;"/><path class="xgrid crisp" transform="translate(343.03,0)" d="M0,80v290" style="stroke: rgb(0, 0, 0); stroke-opacity: 0.1; stroke-width: 1px;"/><path class="xgrid crisp" transform="translate(474.54,0)" d="M0,80v290" style="stroke: rgb(0, 0, 0); stroke-opacity: 0.1; stroke-width: 1px;"/></g><g class="y"><path class="ygrid crisp" transform="translate(0,305.56)" d="M80,0h526.0500000000001" style="stroke: rgb(0, 0, 0); stroke-opacity: 0.1; stroke-width: 1px;"/><path class="ygrid crisp" transform="translate(0,241.11)" d="M80,0h526.0500000000001" style="stroke: rgb(0, 0, 0); stroke-opacity: 0.1; stroke-width: 1px;"/><path class="ygrid crisp" transform="translate(0,176.67000000000002)" d="M80,0h526.0500000000001" style="stroke: rgb(0, 0, 0); stroke-opacity: 0.1; stroke-width: 1px;"/><path class="ygrid crisp" transform="translate(0,112.22)" d="M80,0h526.0500000000001" style="stroke: rgb(0, 0, 0); stroke-opacity: 0.1; stroke-width: 1px;"/></g></g><g class="zerolinelayer"><path class="yzl zl crisp" transform="translate(0,370)" d="M80,0h526.0500000000001" style="stroke: rgb(255, 255, 255); stroke-opacity: 1; stroke-width: 2px;"/></g><g class="layer-between"><g class="shapelayer"/><g class="imagelayer"/></g><path class="xlines-below"/><path class="ylines-below"/><g class="overlines-below"/><g class="xaxislayer-below"/><g class="yaxislayer-below"/><g class="overaxes-below"/><g class="overplot"><g class="xy" transform="translate(80,80)" clip-path="url(#clipdebf5bxyplot)"><g class="scatterlayer mlayer"><g class="trace scatter trace711079" style="stroke-miterlimit: 2;"><g class="fills"><g><path class="js-fill" d="M0,162.83L26.3,183.56L52.61,223.94L78.91,220.59L105.21,219.27L131.51,234.15L157.82,212.58L184.12,236.38L210.42,207.16L236.72,209.75L263.03,203.34L289.33,210.25L315.63,189.83L341.93,178.29L368.24,202.32L394.54,200.84L420.84,223.68L499.75,190.72L526.05,206.26L526.05,150.64L499.75,157.03L473.45,171.7L447.14,171.84L420.84,165.4L394.54,166.59L368.24,152.43L341.93,152.32L315.63,140.08L289.33,167.13L263.03,170.83L236.72,172.23L210.42,180.29L157.82,165.86L131.51,191.56L105.21,163.19L78.91,178.91L52.61,166.3L26.3,93.86L0,73.61Z" style="fill: rgb(45, 106, 79); fill-opacity: 0.15; stroke-width: 0;"/></g></g><g class="errorbars"/><g class="lines"><path class="js-line" d="M0,73.61L26.3,93.86L52.61,166.3L78.91,178.91L105.21,163.19L131.51,191.56L157.82,165.86L210.42,180.29L236.72,172.23L263.03,170.83L289.33,167.13L315.63,140.08L341.93,152.32L368.24,152.43L394.54,166.59L420.84,165.4L447.14,171.84L473.45,171.7L499.75,157.03L526.05,150.64" style="vector-effect: none; fill: none; stroke: rgb(99, 110, 250); stroke-opacity: 1; stroke-width: 0px; opacity: 1;"/></g><g class="points"/><g class="text"/></g><g class="trace scatter tracee0a3bc" style="stroke-miterlimit: 2;"><g class="fills"/><g class="errorbars"/><g class="lines"><path class="js-line" d="M0,162.83L26.3,183.56L52.61,223.94L78.91,220.59L105.21,219.27L131.51,234.15L157.82,212.58L184.12,236.38L210.42,207.16L236.72,209.75L263.03,203.34L289.33,210.25L315.63,189.83L341.93,178.29L368.24,202.32L394.54,200.84L420.84,223.68L499.75,190.72L526.05,206.26" style="vector-effect: none; fill: none; stroke: rgb(239, 85, 59); stroke-opacity: 1; stroke-width: 0px; opacity: 1;"/></g><g class="points"/><g class="text"/></g><g class="trace scatter traceeb53cd" style="stroke-miterlimit: 2; opacity: 1;"><g class="fills"/><g class="errorbars"/><g class="lines"><path class="js-line" d="M0,118.22L26.3,138.71L52.61,195.12L78.91,199.75L105.21,191.23L131.51,212.85L157.82,189.22L184.12,204.78L210.42,193.73L236.72,190.99L263.03,187.08L289.33,188.69L315.63,164.95L341.93,165.31L368.24,177.38L394.54,183.71L420.84,194.54L447.14,192.2L473.45,186.4L499.75,173.87L526.05,178.45" style="vector-effect: none; fill: none; stroke: rgb(45, 106, 79); stroke-opacity: 1; stroke-width: 2px; opacity: 1;"/></g><g class="points"/><g class="text"/></g><g class="trace scatter trace7d752c" style="stroke-miterlimit: 2;"><g class="fills"><g><path class="js-fill" d="M0,182.25L26.3,203.03L52.61,209.73L78.91,192.61L105.21,216.77L131.51,178.01L157.82,168.4L184.12,162.9L210.42,162.71L236.72,182.42L263.03,194.68L289.33,161.99L315.63,226.99L341.93,205.71L368.24,156.19L394.54,160.5L420.84,183.92L447.14,170.13L473.45,197.15L499.75,184.03L526.05,168.28L526.05,140.14L499.75,112.28L473.45,123.65L447.14,118.62L420.84,126.43L394.54,132.17L368.24,118.62L341.93,110.67L315.63,130.34L289.33,120.93L263.03,105.48L236.72,109.32L210.42,111.58L184.12,133.67L157.82,117.73L131.51,131.21L105.21,116.61L52.61,125.8L26.3,106.75L0,18.63Z" style="fill: rgb(29, 53, 87); fill-opacity: 0.15; stroke-width: 0;"/></g></g><g class="errorbars"/><g class="lines"><path class="js-line" d="M0,18.63L26.3,106.75L52.61,125.8L105.21,116.61L131.51,131.21L157.82,117.73L184.12,133.67L210.42,111.58L236.72,109.32L263.03,105.48L289.33,120.93L315.63,130.34L341.93,110.67L368.24,118.62L394.54,132.17L420.84,126.43L447.14,118.62L473.45,123.65L499.75,112.28L526.05,140.14" style="vector-effect: none; fill: none; stroke: rgb(171, 99, 250); stroke-opacity: 1; stroke-width: 0px; opacity: 1;"/></g><g class="points"/><g class="text"/></g><g class="trace scatter tracee870cb" style="stroke-miterlimit: 2;"><g class="fills"/><g class="errorbars"/><g class="lines"><path class="js-line" d="M0,182.25L26.3,203.03L52.61,209.73L78.91,192.61L105.21,216.77L131.51,178.01L157.82,168.4L184.12,162.9L210.42,162.71L236.72,182.42L263.03,194.68L289.33,161.99L315.63,226.99L341.93,205.71L368.24,156.19L394.54,160.5L420.84,183.92L447.14,170.13L473.45,197.15L499.75,184.03L526.05,168.28" style="vector-effect: none; fill: none; stroke: rgb(255, 161, 90); stroke-opacity: 1; stroke-width: 0px; opacity: 1;"/></g><g class="points"/><g class="text"/></g><g class="trace scatter trace4d4273" style="stroke-miterlimit: 2; opacity: 1;"><g class="fills"/><g class="errorbars"/><g class="lines"><path class="js-line" d="M0,100.44L26.3,154.89L52.61,167.77L78.91,157.03L105.21,166.69L157.82,143.07L184.12,148.29L210.42,137.15L236.72,145.87L263.03,150.08L289.33,141.46L315.63,178.66L341.93,158.19L368.24,137.41L394.54,146.33L420.84,155.18L447.14,144.37L473.45,160.4L499.75,148.15L526.05,154.21" style="vector-effect: none; fill: none; stroke: rgb(29, 53, 87); stroke-opacity: 1; stroke-width: 2px; opacity: 1;"/></g><g class="points"/><g class="text"/></g><g class="trace scatter trace2caf2c" style="stroke-miterlimit: 2;"><g class="fills"><g><path class="js-fill" d="M0,172.34L26.3,149.19L52.61,202.4L78.91,181.89L105.21,198.63L131.51,172.45L157.82,196.03L184.12,174.6L210.42,198.48L236.72,201.75L263.03,178.94L289.33,174.24L315.63,193.43L341.93,186L368.24,175.05L394.54,200.97L420.84,187.36L447.14,206.08L473.45,197.13L499.75,195.99L526.05,214.67L526.05,153.85L499.75,155L473.45,158.39L447.14,167.01L420.84,161.24L394.54,142.27L368.24,150.9L341.93,132.41L315.63,157.11L289.33,149.45L263.03,144.71L236.72,144.66L210.42,130.23L184.12,156.8L157.82,149.67L131.51,139.31L105.21,129.94L78.91,114L52.61,155.83L26.3,65.16L0,68.95Z" style="fill: rgb(231, 111, 81); fill-opacity: 0.15; stroke-width: 0;"/></g></g><g class="errorbars"/><g class="lines"><path class="js-line" d="M0,68.95L26.3,65.16L52.61,155.83L78.91,114L105.21,129.94L131.51,139.31L157.82,149.67L184.12,156.8L210.42,130.23L236.72,144.66L263.03,144.71L289.33,149.45L315.63,157.11L341.93,132.41L368.24,150.9L394.54,142.27L420.84,161.24L447.14,167.01L473.45,158.39L499.75,155L526.05,153.85" style="vector-effect: none; fill: none; stroke: rgb(255, 102, 146); stroke-opacity: 1; stroke-width: 0px; opacity: 1;"/></g><g class="points"/><g class="text"/></g><g class="trace scatter traceee5970" style="stroke-miterlimit: 2;"><g class="fills"/><g class="errorbars"/><g class="lines"><path class="js-line" d="M0,172.34L26.3,149.19L52.61,202.4L78.91,181.89L105.21,198.63L131.51,172.45L157.82,196.03L184.12,174.6L210.42,198.48L236.72,201.75L263.03,178.94L289.33,174.24L315.63,193.43L341.93,186L368.24,175.05L394.54,200.97L420.84,187.36L447.14,206.08L473.45,197.13L499.75,195.99L526.05,214.67" style="vector-effect: none; fill: none; stroke: rgb(182, 232, 128); stroke-opacity: 1; stroke-width: 0px; opacity: 1;"/></g><g class="points"/><g class="text"/></g><g class="trace scatter tracebb0ad5" style="stroke-miterlimit: 2; opacity: 1;"><g class="fills"/><g class="errorbars"/><g class="lines"><path class="js-line" d="M0,120.65L26.3,107.17L52.61,179.11L78.91,147.95L105.21,164.29L131.51,155.88L157.82,172.85L184.12,165.7L210.42,164.35L236.72,173.2L263.03,161.83L289.33,161.84L315.63,175.27L341.93,159.2L368.24,162.98L394.54,171.62L420.84,174.3L447.14,186.54L473.45,177.76L499.75,175.5L526.05,184.26" style="vector-effect: none; fill: none; stroke: rgb(231, 111, 81); stroke-opacity: 1; stroke-width: 2px; opacity: 1;"/></g><g class="points"/><g class="text"/></g><g class="trace scatter trace74404b" style="stroke-miterlimit: 2;"><g class="fills"><g><path class="js-fill" d="M0,195.08L26.3,135.1L52.61,207.9L78.91,164.68L105.21,167.73L131.51,148.6L157.82,92.38L184.12,97.57L210.42,127.99L236.72,141.57L263.03,138.75L289.33,99.18L315.63,110.31L341.93,124.82L368.24,94.32L394.54,79.98L420.84,81.19L447.14,110.63L473.45,185.03L499.75,111.54L526.05,148.6L526.05,56.2L499.75,83.42L473.45,124.68L447.14,36.58L420.84,9.46L394.54,54.7L368.24,64.81L341.93,39.83L315.63,49.32L289.33,30.02L263.03,82.13L236.72,24.23L210.42,63.19L184.12,57.04L157.82,48.27L131.51,25.63L105.21,78.13L78.91,61.8L52.61,73.09L0,83.3Z" style="fill: rgb(155, 34, 38); fill-opacity: 0.15; stroke-width: 0;"/></g></g><g class="errorbars"/><g class="lines"><path class="js-line" d="M0,83.3L52.61,73.09L78.91,61.8L105.21,78.13L131.51,25.63L157.82,48.27L184.12,57.04L210.42,63.19L236.72,24.23L263.03,82.13L289.33,30.02L315.63,49.32L341.93,39.83L368.24,64.81L394.54,54.7L420.84,9.46L447.14,36.58L473.45,124.68L499.75,83.42L526.05,56.2" style="vector-effect: none; fill: none; stroke: rgb(254, 203, 82); stroke-opacity: 1; stroke-width: 0px; opacity: 1;"/></g><g class="points"/><g class="text"/></g><g class="trace scatter trace056a4b" style="stroke-miterlimit: 2;"><g class="fills"/><g class="errorbars"/><g class="lines"><path class="js-line" d="M0,195.08L26.3,135.1L52.61,207.9L78.91,164.68L105.21,167.73L131.51,148.6L157.82,92.38L184.12,97.57L210.42,127.99L236.72,141.57L263.03,138.75L289.33,99.18L315.63,110.31L341.93,124.82L368.24,94.32L394.54,79.98L420.84,81.19L447.14,110.63L473.45,185.03L499.75,111.54L526.05,148.6" style="vector-effect: none; fill: none; stroke: rgb(99, 110, 250); stroke-opacity: 1; stroke-width: 0px; opacity: 1;"/></g><g class="points"/><g class="text"/></g><g class="trace scatter trace2e85e0" style="stroke-miterlimit: 2; opacity: 1;"><g class="fills"/><g class="errorbars"/><g class="lines"><path class="js-line" d="M0,139.19L26.3,106.71L52.61,140.49L78.91,113.24L105.21,122.93L131.51,87.12L157.82,70.32L184.12,77.31L210.42,95.59L236.72,82.9L263.03,110.44L289.33,64.6L315.63,79.82L341.93,82.32L368.24,79.57L394.54,67.34L420.84,45.32L447.14,73.61L473.45,154.86L499.75,97.48L526.05,102.4" style="vector-effect: none; fill: none; stroke: rgb(155, 34, 38); stroke-opacity: 1; stroke-width: 2px; opacity: 1;"/></g><g class="points"/><g class="text"/></g><g class="trace scatter trace62dead" style="stroke-miterlimit: 2;"><g class="fills"><g><path class="js-fill" d="M0,160.95L26.3,209.79L52.61,249.35L78.91,235.46L105.21,242.9L131.51,239.24L157.82,215.52L184.12,229.16L210.42,210.94L236.72,213.91L263.03,207.76L289.33,211.2L315.63,195.63L341.93,216.18L368.24,205.45L394.54,193.45L420.84,199.01L447.14,212.48L473.45,205.42L499.75,189.11L526.05,189.85L526.05,168.62L499.75,164.78L473.45,172.53L447.14,166.76L420.84,170.84L394.54,151.56L368.24,181.47L341.93,169.62L315.63,174.88L289.33,151.35L263.03,166.08L236.72,159.3L210.42,181.17L184.12,195.19L157.82,184.42L131.51,192.71L105.21,206.79L78.91,206.01L52.61,207.65L26.3,140.18L0,62.8Z" style="fill: rgb(123, 45, 139); fill-opacity: 0.15; stroke-width: 0;"/></g></g><g class="errorbars"/><g class="lines"><path class="js-line" d="M0,62.8L26.3,140.18L52.61,207.65L78.91,206.01L105.21,206.79L131.51,192.71L157.82,184.42L184.12,195.19L210.42,181.17L236.72,159.3L263.03,166.08L289.33,151.35L315.63,174.88L341.93,169.62L368.24,181.47L394.54,151.56L420.84,170.84L447.14,166.76L473.45,172.53L499.75,164.78L526.05,168.62" style="vector-effect: none; fill: none; stroke: rgb(0, 204, 150); stroke-opacity: 1; stroke-width: 0px; opacity: 1;"/></g><g class="points"/><g class="text"/></g><g class="trace scatter trace399d13" style="stroke-miterlimit: 2;"><g class="fills"/><g class="errorbars"/><g class="lines"><path class="js-line" d="M0,160.95L26.3,209.79L52.61,249.35L78.91,235.46L105.21,242.9L131.51,239.24L157.82,215.52L184.12,229.16L210.42,210.94L236.72,213.91L263.03,207.76L289.33,211.2L315.63,195.63L341.93,216.18L368.24,205.45L394.54,193.45L420.84,199.01L447.14,212.48L473.45,205.42L499.75,189.11L526.05,189.85" style="vector-effect: none; fill: none; stroke: rgb(171, 99, 250); stroke-opacity: 1; stroke-width: 0px; opacity: 1;"/></g><g class="points"/><g class="text"/></g><g class="trace scatter trace980b05" style="stroke-miterlimit: 2; opacity: 1;"><g class="fills"/><g class="errorbars"/><g class="lines"><path class="js-line" d="M0,111.88L26.3,174.98L52.61,228.5L78.91,220.74L105.21,224.84L131.51,215.97L157.82,199.97L184.12,212.17L210.42,196.05L236.72,186.61L263.03,186.92L289.33,181.27L315.63,185.26L341.93,192.9L368.24,193.46L394.54,172.5L420.84,184.93L447.14,189.62L473.45,188.98L499.75,176.95L526.05,179.24" style="vector-effect: none; fill: none; stroke: rgb(123, 45, 139); stroke-opacity: 1; stroke-width: 2px; opacity: 1;"/></g><g class="points"/><g class="text"/></g><g class="trace scatter trace2e2c2a" style="stroke-miterlimit: 2;"><g class="fills"><g><path class="js-fill" d="M0,179.53L26.3,140.79L52.61,195.81L78.91,192.84L105.21,214.34L131.51,193.26L157.82,195.94L184.12,203.62L210.42,178.77L236.72,216.06L263.03,198.82L289.33,205.99L315.63,201.08L341.93,219.34L368.24,187.98L394.54,181.27L420.84,189.19L447.14,184.52L473.45,211.55L499.75,186.78L526.05,196.59L526.05,157.58L499.75,149.52L473.45,168.26L447.14,163.08L420.84,166.43L394.54,164.3L368.24,161.19L341.93,144.07L315.63,181.79L289.33,174.63L263.03,164.77L236.72,120.3L210.42,149.26L184.12,163.78L157.82,173.5L131.51,164.04L105.21,144.14L78.91,128.53L52.61,73.96L26.3,85.9L0,42.5Z" style="fill: rgb(0, 119, 182); fill-opacity: 0.15; stroke-width: 0;"/></g></g><g class="errorbars"/><g class="lines"><path class="js-line" d="M0,42.5L26.3,85.9L52.61,73.96L78.91,128.53L105.21,144.14L131.51,164.04L157.82,173.5L184.12,163.78L210.42,149.26L236.72,120.3L263.03,164.77L289.33,174.63L315.63,181.79L341.93,144.07L368.24,161.19L394.54,164.3L420.84,166.43L447.14,163.08L473.45,168.26L499.75,149.52L526.05,157.58" style="vector-effect: none; fill: none; stroke: rgb(25, 211, 243); stroke-opacity: 1; stroke-width: 0px; opacity: 1;"/></g><g class="points"/><g class="text"/></g><g class="trace scatter traced2278d" style="stroke-miterlimit: 2;"><g class="fills"/><g class="errorbars"/><g class="lines"><path class="js-line" d="M0,179.53L26.3,140.79L52.61,195.81L78.91,192.84L105.21,214.34L131.51,193.26L157.82,195.94L184.12,203.62L210.42,178.77L236.72,216.06L263.03,198.82L289.33,205.99L315.63,201.08L341.93,219.34L368.24,187.98L394.54,181.27L420.84,189.19L447.14,184.52L473.45,211.55L499.75,186.78L526.05,196.59" style="vector-effect: none; fill: none; stroke: rgb(255, 102, 146); stroke-opacity: 1; stroke-width: 0px; opacity: 1;"/></g><g class="points"/><g class="text"/></g><g class="trace scatter tracedef809" style="stroke-miterlimit: 2; opacity: 1;"><g class="fills"/><g class="errorbars"/><g class="lines"><path class="js-line" d="M0,111.02L26.3,113.34L52.61,134.88L78.91,160.69L105.21,179.24L131.51,178.65L157.82,184.72L184.12,183.7L210.42,164.01L236.72,168.18L263.03,181.8L289.33,190.31L315.63,191.44L341.93,181.7L368.24,174.58L394.54,172.79L420.84,177.81L447.14,173.8L473.45,189.9L499.75,168.15L526.05,177.08" style="vector-effect: none; fill: none; stroke: rgb(0, 119, 182); stroke-opacity: 1; stroke-width: 2px; opacity: 1;"/></g><g class="points"/><g class="text"/></g></g></g></g><g class="zerolinelayer-above"/><path class="xlines-above crisp" d="M79,370.5H607.0500000000001M79,79.5H607.0500000000001" style="fill: none; stroke-width: 1px; stroke: rgb(0, 0, 0); stroke-opacity: 1;"/><path class="ylines-above crisp" d="M79.5,80V370M606.5500000000001,80V370" style="fill: none; stroke-width: 1px; stroke: rgb(0, 0, 0); stroke-opacity: 1;"/><g class="overlines-above"/><g class="xaxislayer-above"><g class="xtick"><text text-anchor="middle" x="0" y="385.4" transform="translate(80,0)" style="font-family: 'Open Sans', verdana, arial, sans-serif; font-size: 12px; fill: rgb(42, 63, 95); fill-opacity: 1; white-space: pre;">0</text></g><g class="xtick"><text text-anchor="middle" x="0" y="385.4" style="font-family: 'Open Sans', verdana, arial, sans-serif; font-size: 12px; fill: rgb(42, 63, 95); fill-opacity: 1; white-space: pre;" transform="translate(211.51,0)">500</text></g><g class="xtick"><text text-anchor="middle" x="0" y="385.4" style="font-family: 'Open Sans', verdana, arial, sans-serif; font-size: 12px; fill: rgb(42, 63, 95); fill-opacity: 1; white-space: pre;" transform="translate(343.03,0)">1000</text></g><g class="xtick"><text text-anchor="middle" x="0" y="385.4" style="font-family: 'Open Sans', verdana, arial, sans-serif; font-size: 12px; fill: rgb(42, 63, 95); fill-opacity: 1; white-space: pre;" transform="translate(474.54,0)">1500</text></g><g class="xtick"><text text-anchor="middle" x="0" y="385.4" style="font-family: 'Open Sans', verdana, arial, sans-serif; font-size: 12px; fill: rgb(42, 63, 95); fill-opacity: 1; white-space: pre;" transform="translate(606.05,0)">2000</text></g></g><g class="yaxislayer-above"><g class="ytick"><text text-anchor="end" x="76.6" y="4.199999999999999" transform="translate(0,370)" style="font-family: 'Open Sans', verdana, arial, sans-serif; font-size: 12px; fill: rgb(42, 63, 95); fill-opacity: 1; white-space: pre;">0</text></g><g class="ytick"><text text-anchor="end" x="76.6" y="4.199999999999999" style="font-family: 'Open Sans', verdana, arial, sans-serif; font-size: 12px; fill: rgb(42, 63, 95); fill-opacity: 1; white-space: pre;" transform="translate(0,305.56)">0.1</text></g><g class="ytick"><text text-anchor="end" x="76.6" y="4.199999999999999" style="font-family: 'Open Sans', verdana, arial, sans-serif; font-size: 12px; fill: rgb(42, 63, 95); fill-opacity: 1; white-space: pre;" transform="translate(0,241.11)">0.2</text></g><g class="ytick"><text text-anchor="end" x="76.6" y="4.199999999999999" style="font-family: 'Open Sans', verdana, arial, sans-serif; font-size: 12px; fill: rgb(42, 63, 95); fill-opacity: 1; white-space: pre;" transform="translate(0,176.67000000000002)">0.3</text></g><g class="ytick"><text text-anchor="end" x="76.6" y="4.199999999999999" style="font-family: 'Open Sans', verdana, arial, sans-serif; font-size: 12px; fill: rgb(42, 63, 95); fill-opacity: 1; white-space: pre;" transform="translate(0,112.22)">0.4</text></g></g><g class="overaxes-above"/></g><g class="subplot x2y2"><g class="layer-subplot"><g class="shapelayer"/><g class="imagelayer"/></g><g class="minor-gridlayer"><g class="x2"/><g class="y2"/></g><g class="gridlayer"><g class="x2"><path class="x2grid crisp" transform="translate(854.46,0)" d="M0,80v290" style="stroke: rgb(0, 0, 0); stroke-opacity: 0.1; stroke-width: 1px;"/><path class="x2grid crisp" transform="translate(985.97,0)" d="M0,80v290" style="stroke: rgb(0, 0, 0); stroke-opacity: 0.1; stroke-width: 1px;"/><path class="x2grid crisp" transform="translate(1117.49,0)" d="M0,80v290" style="stroke: rgb(0, 0, 0); stroke-opacity: 0.1; stroke-width: 1px;"/></g><g class="y2"><path class="y2grid crisp" transform="translate(0,305.56)" d="M722.95,0h526.05" style="stroke: rgb(0, 0, 0); stroke-opacity: 0.1; stroke-width: 1px;"/><path class="y2grid crisp" transform="translate(0,241.11)" d="M722.95,0h526.05" style="stroke: rgb(0, 0, 0); stroke-opacity: 0.1; stroke-width: 1px;"/><path class="y2grid crisp" transform="translate(0,176.67000000000002)" d="M722.95,0h526.05" style="stroke: rgb(0, 0, 0); stroke-opacity: 0.1; stroke-width: 1px;"/><path class="y2grid crisp" transform="translate(0,112.22)" d="M722.95,0h526.05" style="stroke: rgb(0, 0, 0); stroke-opacity: 0.1; stroke-width: 1px;"/></g></g><g class="zerolinelayer"><path class="y2zl zl crisp" transform="translate(0,370)" d="M722.95,0h526.05" style="stroke: rgb(255, 255, 255); stroke-opacity: 1; stroke-width: 2px;"/></g><g class="layer-between"><g class="shapelayer"/><g class="imagelayer"/></g><path class="xlines-below"/><path class="ylines-below"/><g class="overlines-below"/><g class="xaxislayer-below"/><g class="yaxislayer-below"/><g class="overaxes-below"/><g class="overplot"><g class="x2y2" transform="translate(722.95,80)" clip-path="url(#clipdebf5bx2y2plot)"><g class="scatterlayer mlayer"><g class="trace scatter trace3216a8" style="stroke-miterlimit: 2;"><g class="fills"><g><path class="js-fill" d="M0,233.38L26.3,304.79L52.6,279.68L78.91,261.23L105.21,249.84L131.51,238.92L157.81,253.68L184.12,233.36L210.42,237.52L236.72,253.48L263.02,248.06L289.33,224.76L315.63,232.13L341.93,214.47L368.23,253.03L394.54,210.22L420.84,233.35L447.14,256.21L473.44,247.64L499.75,231.06L526.05,239.22L526.05,188.06L499.75,190.74L473.44,212.92L447.14,189.25L420.84,179.48L394.54,171.88L368.23,210.06L341.93,177.15L315.63,184.75L289.33,187.33L263.02,213.6L236.72,203.31L210.42,215.28L184.12,210.58L157.81,185.62L131.51,189.79L105.21,182.8L78.91,196.43L52.6,214.32L26.3,236.8L0,156.39Z" style="fill: rgb(45, 106, 79); fill-opacity: 0.15; stroke-width: 0;"/></g></g><g class="errorbars"/><g class="lines"><path class="js-line" d="M0,156.39L26.3,236.8L52.6,214.32L78.91,196.43L105.21,182.8L131.51,189.79L157.81,185.62L184.12,210.58L210.42,215.28L236.72,203.31L263.02,213.6L289.33,187.33L315.63,184.75L341.93,177.15L368.23,210.06L394.54,171.88L420.84,179.48L447.14,189.25L473.44,212.92L499.75,190.74L526.05,188.06" style="vector-effect: none; fill: none; stroke: rgb(255, 151, 255); stroke-opacity: 1; stroke-width: 0px; opacity: 1;"/></g><g class="points"/><g class="text"/></g><g class="trace scatter trace4516e5" style="stroke-miterlimit: 2;"><g class="fills"/><g class="errorbars"/><g class="lines"><path class="js-line" d="M0,233.38L26.3,304.79L52.6,279.68L78.91,261.23L105.21,249.84L131.51,238.92L157.81,253.68L184.12,233.36L210.42,237.52L236.72,253.48L263.02,248.06L289.33,224.76L315.63,232.13L341.93,214.47L368.23,253.03L394.54,210.22L420.84,233.35L447.14,256.21L473.44,247.64L499.75,231.06L526.05,239.22" style="vector-effect: none; fill: none; stroke: rgb(254, 203, 82); stroke-opacity: 1; stroke-width: 0px; opacity: 1;"/></g><g class="points"/><g class="text"/></g><g class="trace scatter trace6a1871" style="stroke-miterlimit: 2; opacity: 1;"><g class="fills"/><g class="errorbars"/><g class="lines"><path class="js-line" d="M0,194.89L26.3,270.79L52.6,247L78.91,228.83L105.21,216.32L131.51,214.35L157.81,219.65L184.12,221.97L210.42,226.4L263.02,230.83L289.33,206.04L315.63,208.44L341.93,195.81L368.23,231.54L394.54,191.05L420.84,206.41L447.14,222.73L473.44,230.28L499.75,210.9L526.05,213.64" style="vector-effect: none; fill: none; stroke: rgb(45, 106, 79); stroke-opacity: 1; stroke-width: 2px; opacity: 1;"/></g><g class="points"/><g class="text"/></g><g class="trace scatter trace9c16f7" style="stroke-miterlimit: 2;"><g class="fills"><g><path class="js-fill" d="M0,231.95L26.3,250.52L52.6,256.39L78.91,244.99L105.21,250.79L131.51,247.64L157.81,257.21L184.12,250.54L210.42,250.12L236.72,247.8L263.02,216.34L289.33,230.42L315.63,220.86L341.93,213.31L368.23,223.57L394.54,243.45L420.84,216.43L447.14,248.13L473.44,214.58L499.75,217.85L526.05,240.79L526.05,193.62L499.75,191.24L473.44,190.44L420.84,181L394.54,176.86L368.23,182.91L341.93,190.23L315.63,165.7L289.33,196.29L263.02,185.63L236.72,191.51L210.42,196.44L184.12,192.29L157.81,208.23L131.51,175.52L105.21,188.15L78.91,199.51L52.6,206.03L26.3,188.03L0,163.9Z" style="fill: rgb(29, 53, 87); fill-opacity: 0.15; stroke-width: 0;"/></g></g><g class="errorbars"/><g class="lines"><path class="js-line" d="M0,163.9L26.3,188.03L52.6,206.03L78.91,199.51L105.21,188.15L131.51,175.52L157.81,208.23L184.12,192.29L210.42,196.44L236.72,191.51L263.02,185.63L289.33,196.29L315.63,165.7L341.93,190.23L368.23,182.91L394.54,176.86L420.84,181L473.44,190.44L499.75,191.24L526.05,193.62" style="vector-effect: none; fill: none; stroke: rgb(239, 85, 59); stroke-opacity: 1; stroke-width: 0px; opacity: 1;"/></g><g class="points"/><g class="text"/></g><g class="trace scatter traced693c5" style="stroke-miterlimit: 2;"><g class="fills"/><g class="errorbars"/><g class="lines"><path class="js-line" d="M0,231.95L26.3,250.52L52.6,256.39L78.91,244.99L105.21,250.79L131.51,247.64L157.81,257.21L184.12,250.54L210.42,250.12L236.72,247.8L263.02,216.34L289.33,230.42L315.63,220.86L341.93,213.31L368.23,223.57L394.54,243.45L420.84,216.43L447.14,248.13L473.44,214.58L499.75,217.85L526.05,240.79" style="vector-effect: none; fill: none; stroke: rgb(0, 204, 150); stroke-opacity: 1; stroke-width: 0px; opacity: 1;"/></g><g class="points"/><g class="text"/></g><g class="trace scatter trace2ed96d" style="stroke-miterlimit: 2; opacity: 1;"><g class="fills"/><g class="errorbars"/><g class="lines"><path class="js-line" d="M0,197.92L26.3,219.27L52.6,231.21L78.91,222.25L105.21,219.47L131.51,211.58L157.81,232.72L184.12,221.41L210.42,223.28L236.72,219.66L263.02,200.98L289.33,213.36L315.63,193.28L341.93,201.77L368.23,203.24L394.54,210.15L420.84,198.72L447.14,216.83L473.44,202.51L499.75,204.54L526.05,217.21" style="vector-effect: none; fill: none; stroke: rgb(29, 53, 87); stroke-opacity: 1; stroke-width: 2px; opacity: 1;"/></g><g class="points"/><g class="text"/></g><g class="trace scatter trace2dc820" style="stroke-miterlimit: 2;"><g class="fills"><g><path class="js-fill" d="M0,247.31L26.3,228.31L52.6,230.84L78.91,220.23L105.21,239.22L131.51,242.17L157.81,255.02L184.12,234.06L210.42,237.03L236.72,234.11L263.02,223.88L289.33,244.07L315.63,228.91L341.93,247.77L368.23,236.24L394.54,235.4L420.84,219.6L447.14,224.86L473.44,219.68L499.75,231.58L526.05,245.85L526.05,201.67L499.75,178.51L473.44,204.29L447.14,199.27L420.84,184.25L394.54,170.44L368.23,186.65L341.93,202.15L315.63,205.59L289.33,182.06L263.02,190.4L236.72,206.73L210.42,196.95L184.12,187.78L157.81,192.45L131.51,203.51L105.21,209.56L78.91,163.59L52.6,204.89L26.3,151.36L0,139.99Z" style="fill: rgb(231, 111, 81); fill-opacity: 0.15; stroke-width: 0;"/></g></g><g class="errorbars"/><g class="lines"><path class="js-line" d="M0,139.99L26.3,151.36L52.6,204.89L78.91,163.59L105.21,209.56L131.51,203.51L157.81,192.45L184.12,187.78L210.42,196.95L236.72,206.73L263.02,190.4L289.33,182.06L315.63,205.59L341.93,202.15L368.23,186.65L394.54,170.44L420.84,184.25L447.14,199.27L473.44,204.29L499.75,178.51L526.05,201.67" style="vector-effect: none; fill: none; stroke: rgb(255, 161, 90); stroke-opacity: 1; stroke-width: 0px; opacity: 1;"/></g><g class="points"/><g class="text"/></g><g class="trace scatter trace594fb5" style="stroke-miterlimit: 2;"><g class="fills"/><g class="errorbars"/><g class="lines"><path class="js-line" d="M0,247.31L26.3,228.31L52.6,230.84L78.91,220.23L105.21,239.22L131.51,242.17L157.81,255.02L184.12,234.06L210.42,237.03L236.72,234.11L263.02,223.88L289.33,244.07L315.63,228.91L341.93,247.77L368.23,236.24L394.54,235.4L420.84,219.6L447.14,224.86L473.44,219.68L499.75,231.58L526.05,245.85" style="vector-effect: none; fill: none; stroke: rgb(25, 211, 243); stroke-opacity: 1; stroke-width: 0px; opacity: 1;"/></g><g class="points"/><g class="text"/></g><g class="trace scatter trace64976f" style="stroke-miterlimit: 2; opacity: 1;"><g class="fills"/><g class="errorbars"/><g class="lines"><path class="js-line" d="M0,193.65L26.3,189.84L52.6,217.87L78.91,191.91L105.21,224.39L131.51,222.84L157.81,223.74L184.12,210.92L210.42,216.99L236.72,220.42L263.02,207.14L289.33,213.07L315.63,217.25L341.93,224.96L368.23,211.45L394.54,202.92L420.84,201.93L447.14,212.06L473.44,211.99L499.75,205.04L526.05,223.76" style="vector-effect: none; fill: none; stroke: rgb(231, 111, 81); stroke-opacity: 1; stroke-width: 2px; opacity: 1;"/></g><g class="points"/><g class="text"/></g><g class="trace scatter tracecd6bf5" style="stroke-miterlimit: 2;"><g class="fills"><g><path class="js-fill" d="M0,237.92L52.6,210.46L78.91,206L105.21,234.17L131.51,199.64L157.81,176.26L184.12,197.94L210.42,200.86L236.72,228.96L263.02,189.18L289.33,223.9L315.63,194.31L341.93,187.59L368.23,218.46L394.54,219.68L420.84,219.81L447.14,188.01L473.44,209.17L499.75,199.44L526.05,197.02L526.05,158.9L499.75,161.29L473.44,151.98L447.14,159.2L420.84,194.37L394.54,136.22L368.23,168.46L341.93,146.31L315.63,149.65L289.33,146.89L263.02,151.02L236.72,149.89L210.42,144.81L184.12,158.99L157.81,127.75L131.51,141.3L105.21,134.63L78.91,129.97L52.6,137.6L26.3,179.74L0,160.03Z" style="fill: rgb(155, 34, 38); fill-opacity: 0.15; stroke-width: 0;"/></g></g><g class="errorbars"/><g class="lines"><path class="js-line" d="M0,160.03L26.3,179.74L52.6,137.6L78.91,129.97L105.21,134.63L131.51,141.3L157.81,127.75L184.12,158.99L210.42,144.81L236.72,149.89L263.02,151.02L289.33,146.89L315.63,149.65L341.93,146.31L368.23,168.46L394.54,136.22L420.84,194.37L447.14,159.2L473.44,151.98L499.75,161.29L526.05,158.9" style="vector-effect: none; fill: none; stroke: rgb(182, 232, 128); stroke-opacity: 1; stroke-width: 0px; opacity: 1;"/></g><g class="points"/><g class="text"/></g><g class="trace scatter traced38a6d" style="stroke-miterlimit: 2;"><g class="fills"/><g class="errorbars"/><g class="lines"><path class="js-line" d="M0,237.92L52.6,210.46L78.91,206L105.21,234.17L131.51,199.64L157.81,176.26L184.12,197.94L210.42,200.86L236.72,228.96L263.02,189.18L289.33,223.9L315.63,194.31L341.93,187.59L368.23,218.46L394.54,219.68L420.84,219.81L447.14,188.01L473.44,209.17L499.75,199.44L526.05,197.02" style="vector-effect: none; fill: none; stroke: rgb(255, 151, 255); stroke-opacity: 1; stroke-width: 0px; opacity: 1;"/></g><g class="points"/><g class="text"/></g><g class="trace scatter trace3013c9" style="stroke-miterlimit: 2; opacity: 1;"><g class="fills"/><g class="errorbars"/><g class="lines"><path class="js-line" d="M0,198.97L26.3,202.08L52.6,174.03L78.91,167.99L105.21,184.4L131.51,170.47L157.81,152.01L184.12,178.46L210.42,172.83L236.72,189.43L263.02,170.1L289.33,185.39L315.63,171.98L341.93,166.95L368.23,193.46L394.54,177.95L420.84,207.09L447.14,173.6L473.44,180.58L499.75,180.36L526.05,177.96" style="vector-effect: none; fill: none; stroke: rgb(155, 34, 38); stroke-opacity: 1; stroke-width: 2px; opacity: 1;"/></g><g class="points"/><g class="text"/></g><g class="trace scatter trace328c13" style="stroke-miterlimit: 2;"><g class="fills"><g><path class="js-fill" d="M0,213.46L26.3,266.62L52.6,274.58L78.91,297.92L105.21,245.73L131.51,267.87L157.81,252.42L184.12,279.1L210.42,286.1L236.72,258.06L263.02,244.47L341.93,240.26L368.23,251.67L394.54,248.23L420.84,239.37L447.14,229.19L473.44,257.36L499.75,247.65L526.05,253.84L526.05,212.15L499.75,198.37L473.44,207.02L447.14,199.78L420.84,210.88L394.54,188.16L368.23,224.65L341.93,195.75L315.63,215.27L289.33,231.49L263.02,222.75L236.72,200.83L210.42,200.94L184.12,231.16L157.81,207.64L131.51,241.39L105.21,222.13L78.91,243.18L52.6,235.2L26.3,205.95L0,130.62Z" style="fill: rgb(123, 45, 139); fill-opacity: 0.15; stroke-width: 0;"/></g></g><g class="errorbars"/><g class="lines"><path class="js-line" d="M0,130.62L26.3,205.95L52.6,235.2L78.91,243.18L105.21,222.13L131.51,241.39L157.81,207.64L184.12,231.16L210.42,200.94L236.72,200.83L263.02,222.75L289.33,231.49L315.63,215.27L341.93,195.75L368.23,224.65L394.54,188.16L420.84,210.88L447.14,199.78L473.44,207.02L499.75,198.37L526.05,212.15" style="vector-effect: none; fill: none; stroke: rgb(99, 110, 250); stroke-opacity: 1; stroke-width: 0px; opacity: 1;"/></g><g class="points"/><g class="text"/></g><g class="trace scatter trace6e4cfa" style="stroke-miterlimit: 2;"><g class="fills"/><g class="errorbars"/><g class="lines"><path class="js-line" d="M0,213.46L26.3,266.62L52.6,274.58L78.91,297.92L105.21,245.73L131.51,267.87L157.81,252.42L184.12,279.1L210.42,286.1L236.72,258.06L263.02,244.47L341.93,240.26L368.23,251.67L394.54,248.23L420.84,239.37L447.14,229.19L473.44,257.36L499.75,247.65L526.05,253.84" style="vector-effect: none; fill: none; stroke: rgb(239, 85, 59); stroke-opacity: 1; stroke-width: 0px; opacity: 1;"/></g><g class="points"/><g class="text"/></g><g class="trace scatter trace67bdec" style="stroke-miterlimit: 2; opacity: 1;"><g class="fills"/><g class="errorbars"/><g class="lines"><path class="js-line" d="M0,172.04L26.3,236.29L52.6,254.89L78.91,270.55L105.21,233.93L131.51,254.63L157.81,230.03L184.12,255.13L210.42,243.52L236.72,229.45L263.02,233.61L289.33,237.29L315.63,228.46L341.93,218.01L368.23,238.16L394.54,218.19L420.84,225.13L447.14,214.49L473.44,232.19L499.75,223.01L526.05,233" style="vector-effect: none; fill: none; stroke: rgb(123, 45, 139); stroke-opacity: 1; stroke-width: 2px; opacity: 1;"/></g><g class="points"/><g class="text"/></g><g class="trace scatter trace5a6d24" style="stroke-miterlimit: 2;"><g class="fills"><g><path class="js-fill" d="M0,221.22L26.3,221.12L52.6,256.87L78.91,272.94L105.21,275.6L131.51,241.41L157.81,255.6L184.12,269.29L210.42,243.22L236.72,240.98L263.02,254.07L289.33,244.35L315.63,233.31L341.93,244.47L368.23,226.57L394.54,242.59L420.84,232.48L447.14,226.94L473.44,227.57L499.75,243.99L526.05,248.98L526.05,184.82L499.75,193.44L473.44,188.79L447.14,187.75L420.84,204.41L394.54,183.91L368.23,200.2L341.93,212.79L315.63,183.88L289.33,197.11L263.02,188.83L236.72,216.16L210.42,170.47L184.12,207.08L157.81,195.1L131.51,195.83L105.21,204.48L78.91,212.07L52.6,199.07L26.3,165.69L0,152.9Z" style="fill: rgb(0, 119, 182); fill-opacity: 0.15; stroke-width: 0;"/></g></g><g class="errorbars"/><g class="lines"><path class="js-line" d="M0,152.9L26.3,165.69L52.6,199.07L78.91,212.07L105.21,204.48L131.51,195.83L157.81,195.1L184.12,207.08L210.42,170.47L236.72,216.16L263.02,188.83L289.33,197.11L315.63,183.88L341.93,212.79L368.23,200.2L394.54,183.91L420.84,204.41L447.14,187.75L473.44,188.79L499.75,193.44L526.05,184.82" style="vector-effect: none; fill: none; stroke: rgb(171, 99, 250); stroke-opacity: 1; stroke-width: 0px; opacity: 1;"/></g><g class="points"/><g class="text"/></g><g class="trace scatter trace4ef086" style="stroke-miterlimit: 2;"><g class="fills"/><g class="errorbars"/><g class="lines"><path class="js-line" d="M0,221.22L26.3,221.12L52.6,256.87L78.91,272.94L105.21,275.6L131.51,241.41L157.81,255.6L184.12,269.29L210.42,243.22L236.72,240.98L263.02,254.07L289.33,244.35L315.63,233.31L341.93,244.47L368.23,226.57L394.54,242.59L420.84,232.48L447.14,226.94L473.44,227.57L499.75,243.99L526.05,248.98" style="vector-effect: none; fill: none; stroke: rgb(255, 161, 90); stroke-opacity: 1; stroke-width: 0px; opacity: 1;"/></g><g class="points"/><g class="text"/></g><g class="trace scatter traceba5095" style="stroke-miterlimit: 2; opacity: 1;"><g class="fills"/><g class="errorbars"/><g class="lines"><path class="js-line" d="M0,187.06L26.3,193.41L52.6,227.97L78.91,242.5L105.21,240.04L131.51,218.62L157.81,225.35L184.12,238.19L210.42,206.85L236.72,228.57L263.02,221.45L289.33,220.73L315.63,208.6L341.93,228.63L368.23,213.39L394.54,213.25L420.84,218.45L447.14,207.35L473.44,208.18L499.75,218.71L526.05,216.9" style="vector-effect: none; fill: none; stroke: rgb(0, 119, 182); stroke-opacity: 1; stroke-width: 2px; opacity: 1;"/></g><g class="points"/><g class="text"/></g></g></g></g><g class="zerolinelayer-above"/><path class="xlines-above crisp" d="M721.95,370.5H1250M721.95,79.5H1250" style="fill: none; stroke-width: 1px; stroke: rgb(0, 0, 0); stroke-opacity: 1;"/><path class="ylines-above crisp" d="M722.45,80V370M1249.5,80V370" style="fill: none; stroke-width: 1px; stroke: rgb(0, 0, 0); stroke-opacity: 1;"/><g class="overlines-above"/><g class="xaxislayer-above"><g class="x2tick"><text text-anchor="middle" x="0" y="385.4" transform="translate(722.95,0)" style="font-family: 'Open Sans', verdana, arial, sans-serif; font-size: 12px; fill: rgb(42, 63, 95); fill-opacity: 1; white-space: pre;">0</text></g><g class="x2tick"><text text-anchor="middle" x="0" y="385.4" style="font-family: 'Open Sans', verdana, arial, sans-serif; font-size: 12px; fill: rgb(42, 63, 95); fill-opacity: 1; white-space: pre;" transform="translate(854.46,0)">500</text></g><g class="x2tick"><text text-anchor="middle" x="0" y="385.4" style="font-family: 'Open Sans', verdana, arial, sans-serif; font-size: 12px; fill: rgb(42, 63, 95); fill-opacity: 1; white-space: pre;" transform="translate(985.97,0)">1000</text></g><g class="x2tick"><text text-anchor="middle" x="0" y="385.4" style="font-family: 'Open Sans', verdana, arial, sans-serif; font-size: 12px; fill: rgb(42, 63, 95); fill-opacity: 1; white-space: pre;" transform="translate(1117.49,0)">1500</text></g><g class="x2tick"><text text-anchor="middle" x="0" y="385.4" style="font-family: 'Open Sans', verdana, arial, sans-serif; font-size: 12px; fill: rgb(42, 63, 95); fill-opacity: 1; white-space: pre;" transform="translate(1249,0)">2000</text></g></g><g class="yaxislayer-above"><g class="y2tick"><text text-anchor="end" x="719.5500000000001" y="4.199999999999999" transform="translate(0,370)" style="font-family: 'Open Sans', verdana, arial, sans-serif; font-size: 12px; fill: rgb(42, 63, 95); fill-opacity: 1; white-space: pre;">0</text></g><g class="y2tick"><text text-anchor="end" x="719.5500000000001" y="4.199999999999999" style="font-family: 'Open Sans', verdana, arial, sans-serif; font-size: 12px; fill: rgb(42, 63, 95); fill-opacity: 1; white-space: pre;" transform="translate(0,305.56)">0.1</text></g><g class="y2tick"><text text-anchor="end" x="719.5500000000001" y="4.199999999999999" style="font-family: 'Open Sans', verdana, arial, sans-serif; font-size: 12px; fill: rgb(42, 63, 95); fill-opacity: 1; white-space: pre;" transform="translate(0,241.11)">0.2</text></g><g class="y2tick"><text text-anchor="end" x="719.5500000000001" y="4.199999999999999" style="font-family: 'Open Sans', verdana, arial, sans-serif; font-size: 12px; fill: rgb(42, 63, 95); fill-opacity: 1; white-space: pre;" transform="translate(0,176.67000000000002)">0.3</text></g><g class="y2tick"><text text-anchor="end" x="719.5500000000001" y="4.199999999999999" style="font-family: 'Open Sans', verdana, arial, sans-serif; font-size: 12px; fill: rgb(42, 63, 95); fill-opacity: 1; white-space: pre;" transform="translate(0,112.22)">0.4</text></g></g><g class="overaxes-above"/></g></g><g class="polarlayer"/><g class="smithlayer"/><g class="ternarylayer"/><g class="geolayer"/><g class="funnelarealayer"/><g class="pielayer"/><g class="iciclelayer"/><g class="treemaplayer"/><g class="sunburstlayer"/><g class="glimages"/><defs id="topdefs-debf5b"><g class="clips"/><clipPath id="legenddebf5b"><rect width="116" height="174" x="0" y="0"/></clipPath></defs><g class="layer-above"><g class="imagelayer"/><g class="shapelayer"><g class="shape-group" data-index="0" clip-path="url(#clipdebf5by)"><path data-index="0" fill-rule="evenodd" d="M80,370L606.0500000000001,370" style="opacity: 1; stroke: rgb(0, 0, 0); stroke-opacity: 0.3; fill: rgb(0, 0, 0); fill-opacity: 0; stroke-dasharray: 9px, 9px; stroke-width: 1px;"/></g><g class="shape-group" data-index="1" clip-path="url(#clipdebf5by2)"><path data-index="1" fill-rule="evenodd" d="M722.95,370L1249,370" style="opacity: 1; stroke: rgb(0, 0, 0); stroke-opacity: 0.3; fill: rgb(0, 0, 0); fill-opacity: 0; stroke-dasharray: 9px, 9px; stroke-width: 1px;"/></g></g></g><g class="infolayer"><g class="legend" pointer-events="all" transform="translate(1272.38,80)"><rect class="bg" shape-rendering="crispEdges" style="stroke: rgb(68, 68, 68); stroke-opacity: 1; fill: rgb(255, 255, 255); fill-opacity: 1; stroke-width: 0px;" width="116" height="174" x="0" y="0"/><g class="scrollbox" transform="" clip-path="url(#legenddebf5b)"><g class="groups" transform=""><g class="traces" transform="translate(0,14.5)" style="opacity: 1;"><text class="legendtext" text-anchor="start" x="40" y="4.680000000000001" style="font-family: 'Open Sans', verdana, arial, sans-serif; font-size: 12px; fill: rgb(42, 63, 95); fill-opacity: 1; white-space: pre;">EI</text><g class="layers" style="opacity: 1;"><g class="legendfill"/><g class="legendlines"><path class="js-line" d="M5,0h30" style="fill: none; stroke: rgb(45, 106, 79); stroke-opacity: 1; stroke-width: 2px;"/></g><g class="legendsymbols"><g class="legendpoints"/></g></g><rect class="legendtoggle" x="0" y="-9.5" width="110.875" height="19" style="fill: rgb(0, 0, 0); fill-opacity: 0;"/></g></g><g class="groups" transform="translate(0,10)"><g class="traces" transform="translate(0,33.5)" style="opacity: 1;"><text class="legendtext" text-anchor="start" x="40" y="4.680000000000001" style="font-family: 'Open Sans', verdana, arial, sans-serif; font-size: 12px; fill: rgb(42, 63, 95); fill-opacity: 1; white-space: pre;">UCB</text><g class="layers" style="opacity: 1;"><g class="legendfill"/><g class="legendlines"><path class="js-line" d="M5,0h30" style="fill: none; stroke: rgb(29, 53, 87); stroke-opacity: 1; stroke-width: 2px;"/></g><g class="legendsymbols"><g class="legendpoints"/></g></g><rect class="legendtoggle" x="0" y="-9.5" width="110.875" height="19" style="fill: rgb(0, 0, 0); fill-opacity: 0;"/></g></g><g class="groups" transform="translate(0,20)"><g class="traces" transform="translate(0,52.5)" style="opacity: 1;"><text class="legendtext" text-anchor="start" x="40" y="4.680000000000001" style="font-family: 'Open Sans', verdana, arial, sans-serif; font-size: 12px; fill: rgb(42, 63, 95); fill-opacity: 1; white-space: pre;">Random</text><g class="layers" style="opacity: 1;"><g class="legendfill"/><g class="legendlines"><path class="js-line" d="M5,0h30" style="fill: none; stroke: rgb(231, 111, 81); stroke-opacity: 1; stroke-width: 2px;"/></g><g class="legendsymbols"><g class="legendpoints"/></g></g><rect class="legendtoggle" x="0" y="-9.5" width="110.875" height="19" style="fill: rgb(0, 0, 0); fill-opacity: 0;"/></g></g><g class="groups" transform="translate(0,30)"><g class="traces" transform="translate(0,71.5)" style="opacity: 1;"><text class="legendtext" text-anchor="start" x="40" y="4.680000000000001" style="font-family: 'Open Sans', verdana, arial, sans-serif; font-size: 12px; fill: rgb(42, 63, 95); fill-opacity: 1; white-space: pre;">Exploitation</text><g class="layers" style="opacity: 1;"><g class="legendfill"/><g class="legendlines"><path class="js-line" d="M5,0h30" style="fill: none; stroke: rgb(155, 34, 38); stroke-opacity: 1; stroke-width: 2px;"/></g><g class="legendsymbols"><g class="legendpoints"/></g></g><rect class="legendtoggle" x="0" y="-9.5" width="110.875" height="19" style="fill: rgb(0, 0, 0); fill-opacity: 0;"/></g></g><g class="groups" transform="translate(0,40)"><g class="traces" transform="translate(0,90.5)" style="opacity: 1;"><text class="legendtext" text-anchor="start" x="40" y="4.680000000000001" style="font-family: 'Open Sans', verdana, arial, sans-serif; font-size: 12px; fill: rgb(42, 63, 95); fill-opacity: 1; white-space: pre;">Exploration</text><g class="layers" style="opacity: 1;"><g class="legendfill"/><g class="legendlines"><path class="js-line" d="M5,0h30" style="fill: none; stroke: rgb(123, 45, 139); stroke-opacity: 1; stroke-width: 2px;"/></g><g class="legendsymbols"><g class="legendpoints"/></g></g><rect class="legendtoggle" x="0" y="-9.5" width="110.875" height="19" style="fill: rgb(0, 0, 0); fill-opacity: 0;"/></g></g><g class="groups" transform="translate(0,50)"><g class="traces" transform="translate(0,109.5)" style="opacity: 1;"><text class="legendtext" text-anchor="start" x="40" y="4.680000000000001" style="font-family: 'Open Sans', verdana, arial, sans-serif; font-size: 12px; fill: rgb(42, 63, 95); fill-opacity: 1; white-space: pre;">Diversity</text><g class="layers" style="opacity: 1;"><g class="legendfill"/><g class="legendlines"><path class="js-line" d="M5,0h30" style="fill: none; stroke: rgb(0, 119, 182); stroke-opacity: 1; stroke-width: 2px;"/></g><g class="legendsymbols"><g class="legendpoints"/></g></g><rect class="legendtoggle" x="0" y="-9.5" width="110.875" height="19" style="fill: rgb(0, 0, 0); fill-opacity: 0;"/></g></g></g><rect class="scrollbar" rx="20" ry="3" width="0" height="0" style="fill: rgb(128, 139, 164); fill-opacity: 1;" x="0" y="0"/></g><g class="g-gtitle"/><g class="g-xtitle"><text class="xtitle" x="343.02500000000003" y="412.700390625" text-anchor="middle" style="opacity: 1; font-family: 'Open Sans', verdana, arial, sans-serif; font-size: 14px; fill: rgb(42, 63, 95); fill-opacity: 1; white-space: pre;">Number of Labeled Molecules</text></g><g class="g-x2title"><text class="x2title" x="985.975" y="412.700390625" text-anchor="middle" style="opacity: 1; font-family: 'Open Sans', verdana, arial, sans-serif; font-size: 14px; fill: rgb(42, 63, 95); fill-opacity: 1; white-space: pre;">Number of Labeled Molecules</text></g><g class="g-ytitle"><text class="ytitle" transform="rotate(-90,37.574609375,225)" x="37.574609375" y="225" text-anchor="middle" style="opacity: 1; font-family: 'Open Sans', verdana, arial, sans-serif; font-size: 14px; fill: rgb(42, 63, 95); fill-opacity: 1; white-space: pre;">Spearman ρ(σ, |error|)</text></g><g class="g-y2title"><text class="y2title" transform="rotate(-90,680.5248046875,225)" x="680.5248046875" y="225" text-anchor="middle" style="opacity: 1; font-family: 'Open Sans', verdana, arial, sans-serif; font-size: 14px; fill: rgb(42, 63, 95); fill-opacity: 1; white-space: pre;">Spearman ρ(σ, |error|)</text></g><g class="annotation" data-index="0" style="opacity: 1;"><g class="annotation-text-g" transform="rotate(0,135,68.5)"><g class="cursor-pointer" transform="translate(80,57)"><rect class="bg" x="0.5" y="0.5" width="109" height="22" style="stroke-width: 1px; stroke: rgb(0, 0, 0); stroke-opacity: 0; fill: rgb(0, 0, 0); fill-opacity: 0;"/><text class="annotation-text" text-anchor="middle" x="54.9140625" y="18" style="font-family: 'Open Sans', verdana, arial, sans-serif; font-size: 16px; fill: rgb(42, 63, 95); fill-opacity: 1; white-space: pre;">Scaffold Split</text></g></g></g><g class="annotation" data-index="1" style="opacity: 1;"><g class="annotation-text-g" transform="rotate(0,778.45,68.5)"><g class="cursor-pointer" transform="translate(723,57)"><rect class="bg" x="0.5" y="0.5" width="110" height="22" style="stroke-width: 1px; stroke: rgb(0, 0, 0); stroke-opacity: 0; fill: rgb(0, 0, 0); fill-opacity: 0;"/><text class="annotation-text" text-anchor="middle" x="55.703125" y="18" style="font-family: 'Open Sans', verdana, arial, sans-serif; font-size: 16px; fill: rgb(42, 63, 95); fill-opacity: 1; white-space: pre;">Random Split</text></g></g></g></g></svg>